<mxfile host="app.diagrams.net" agent="Mozilla/5.0 (X11; Linux x86_64) AppleWebKit/537.36 (KHTML, like Gecko) Chrome/127.0.0.0 Safari/537.36" version="24.7.7">
  <diagram name="Страница — 1" id="znL3t_j3WrMV90D-xbOR">
    <mxGraphModel dx="2049" dy="1180" grid="1" gridSize="10" guides="1" tooltips="1" connect="1" arrows="1" fold="1" page="1" pageScale="1" pageWidth="1654" pageHeight="1169" math="0" shadow="0">
      <root>
        <mxCell id="0" />
        <mxCell id="1" parent="0" />
        <mxCell id="ZtE4hQ4jBU0YgBMU4XLE-203" value="" style="rounded=0;whiteSpace=wrap;html=1;fillColor=#e1d5e7;strokeColor=#9673a6;" vertex="1" parent="1">
          <mxGeometry x="525" y="560" width="390" height="420" as="geometry" />
        </mxCell>
        <mxCell id="ZtE4hQ4jBU0YgBMU4XLE-202" value="" style="rounded=0;whiteSpace=wrap;html=1;fillColor=#d5e8d4;strokeColor=#82b366;" vertex="1" parent="1">
          <mxGeometry x="55" y="560" width="450" height="420" as="geometry" />
        </mxCell>
        <mxCell id="ZtE4hQ4jBU0YgBMU4XLE-198" value="" style="rounded=0;whiteSpace=wrap;html=1;fillColor=#dae8fc;strokeColor=#6c8ebf;" vertex="1" parent="1">
          <mxGeometry x="50" y="250" width="870" height="290" as="geometry" />
        </mxCell>
        <mxCell id="ZtE4hQ4jBU0YgBMU4XLE-197" value="" style="rounded=0;whiteSpace=wrap;html=1;fillColor=#f8cecc;strokeColor=#b85450;" vertex="1" parent="1">
          <mxGeometry x="280" y="90" width="410" height="170" as="geometry" />
        </mxCell>
        <mxCell id="ZtE4hQ4jBU0YgBMU4XLE-1" value="" style="shape=table;startSize=0;container=1;collapsible=0;childLayout=tableLayout;" vertex="1" parent="1">
          <mxGeometry x="960" y="10" width="580" height="680" as="geometry" />
        </mxCell>
        <mxCell id="ZtE4hQ4jBU0YgBMU4XLE-2" value="" style="shape=tableRow;horizontal=0;startSize=0;swimlaneHead=0;swimlaneBody=0;strokeColor=inherit;top=0;left=0;bottom=0;right=0;collapsible=0;dropTarget=0;fillColor=none;points=[[0,0.5],[1,0.5]];portConstraint=eastwest;" vertex="1" parent="ZtE4hQ4jBU0YgBMU4XLE-1">
          <mxGeometry width="580" height="20" as="geometry" />
        </mxCell>
        <mxCell id="ZtE4hQ4jBU0YgBMU4XLE-3" value="Name" style="shape=partialRectangle;html=1;whiteSpace=wrap;connectable=0;strokeColor=inherit;overflow=hidden;fillColor=none;top=0;left=0;bottom=0;right=0;pointerEvents=1;" vertex="1" parent="ZtE4hQ4jBU0YgBMU4XLE-2">
          <mxGeometry width="60" height="20" as="geometry">
            <mxRectangle width="60" height="20" as="alternateBounds" />
          </mxGeometry>
        </mxCell>
        <mxCell id="ZtE4hQ4jBU0YgBMU4XLE-4" value="Network" style="shape=partialRectangle;html=1;whiteSpace=wrap;connectable=0;strokeColor=inherit;overflow=hidden;fillColor=none;top=0;left=0;bottom=0;right=0;pointerEvents=1;" vertex="1" parent="ZtE4hQ4jBU0YgBMU4XLE-2">
          <mxGeometry x="60" width="100" height="20" as="geometry">
            <mxRectangle width="100" height="20" as="alternateBounds" />
          </mxGeometry>
        </mxCell>
        <mxCell id="ZtE4hQ4jBU0YgBMU4XLE-5" value="Netmask" style="shape=partialRectangle;html=1;whiteSpace=wrap;connectable=0;strokeColor=inherit;overflow=hidden;fillColor=none;top=0;left=0;bottom=0;right=0;pointerEvents=1;" vertex="1" parent="ZtE4hQ4jBU0YgBMU4XLE-2">
          <mxGeometry x="160" width="100" height="20" as="geometry">
            <mxRectangle width="100" height="20" as="alternateBounds" />
          </mxGeometry>
        </mxCell>
        <mxCell id="ZtE4hQ4jBU0YgBMU4XLE-6" value="N" style="shape=partialRectangle;html=1;whiteSpace=wrap;connectable=0;strokeColor=inherit;overflow=hidden;fillColor=none;top=0;left=0;bottom=0;right=0;pointerEvents=1;" vertex="1" parent="ZtE4hQ4jBU0YgBMU4XLE-2">
          <mxGeometry x="260" width="30" height="20" as="geometry">
            <mxRectangle width="30" height="20" as="alternateBounds" />
          </mxGeometry>
        </mxCell>
        <mxCell id="ZtE4hQ4jBU0YgBMU4XLE-7" value="Hostmin" style="shape=partialRectangle;html=1;whiteSpace=wrap;connectable=0;strokeColor=inherit;overflow=hidden;fillColor=none;top=0;left=0;bottom=0;right=0;pointerEvents=1;" vertex="1" parent="ZtE4hQ4jBU0YgBMU4XLE-2">
          <mxGeometry x="290" width="80" height="20" as="geometry">
            <mxRectangle width="80" height="20" as="alternateBounds" />
          </mxGeometry>
        </mxCell>
        <mxCell id="ZtE4hQ4jBU0YgBMU4XLE-8" value="Hostmax" style="shape=partialRectangle;html=1;whiteSpace=wrap;connectable=0;strokeColor=inherit;overflow=hidden;fillColor=none;top=0;left=0;bottom=0;right=0;pointerEvents=1;" vertex="1" parent="ZtE4hQ4jBU0YgBMU4XLE-2">
          <mxGeometry x="370" width="100" height="20" as="geometry">
            <mxRectangle width="100" height="20" as="alternateBounds" />
          </mxGeometry>
        </mxCell>
        <mxCell id="ZtE4hQ4jBU0YgBMU4XLE-9" value="Broadcast" style="shape=partialRectangle;html=1;whiteSpace=wrap;connectable=0;strokeColor=inherit;overflow=hidden;fillColor=none;top=0;left=0;bottom=0;right=0;pointerEvents=1;" vertex="1" parent="ZtE4hQ4jBU0YgBMU4XLE-2">
          <mxGeometry x="470" width="110" height="20" as="geometry">
            <mxRectangle width="110" height="20" as="alternateBounds" />
          </mxGeometry>
        </mxCell>
        <mxCell id="ZtE4hQ4jBU0YgBMU4XLE-10" value="" style="shape=tableRow;horizontal=0;startSize=0;swimlaneHead=0;swimlaneBody=0;strokeColor=inherit;top=0;left=0;bottom=0;right=0;collapsible=0;dropTarget=0;fillColor=none;points=[[0,0.5],[1,0.5]];portConstraint=eastwest;" vertex="1" parent="ZtE4hQ4jBU0YgBMU4XLE-1">
          <mxGeometry y="20" width="580" height="20" as="geometry" />
        </mxCell>
        <mxCell id="ZtE4hQ4jBU0YgBMU4XLE-11" value="Central network" style="shape=partialRectangle;html=1;whiteSpace=wrap;connectable=0;strokeColor=inherit;overflow=hidden;fillColor=none;top=0;left=0;bottom=0;right=0;pointerEvents=1;rowspan=1;colspan=7;" vertex="1" parent="ZtE4hQ4jBU0YgBMU4XLE-10">
          <mxGeometry width="580" height="20" as="geometry">
            <mxRectangle width="60" height="20" as="alternateBounds" />
          </mxGeometry>
        </mxCell>
        <mxCell id="ZtE4hQ4jBU0YgBMU4XLE-12" value="" style="shape=partialRectangle;html=1;whiteSpace=wrap;connectable=0;strokeColor=inherit;overflow=hidden;fillColor=none;top=0;left=0;bottom=0;right=0;pointerEvents=1;" vertex="1" visible="0" parent="ZtE4hQ4jBU0YgBMU4XLE-10">
          <mxGeometry x="60" width="100" height="20" as="geometry">
            <mxRectangle width="100" height="20" as="alternateBounds" />
          </mxGeometry>
        </mxCell>
        <mxCell id="ZtE4hQ4jBU0YgBMU4XLE-13" value="" style="shape=partialRectangle;html=1;whiteSpace=wrap;connectable=0;strokeColor=inherit;overflow=hidden;fillColor=none;top=0;left=0;bottom=0;right=0;pointerEvents=1;" vertex="1" visible="0" parent="ZtE4hQ4jBU0YgBMU4XLE-10">
          <mxGeometry x="160" width="100" height="20" as="geometry">
            <mxRectangle width="100" height="20" as="alternateBounds" />
          </mxGeometry>
        </mxCell>
        <mxCell id="ZtE4hQ4jBU0YgBMU4XLE-14" value="" style="shape=partialRectangle;html=1;whiteSpace=wrap;connectable=0;strokeColor=inherit;overflow=hidden;fillColor=none;top=0;left=0;bottom=0;right=0;pointerEvents=1;" vertex="1" visible="0" parent="ZtE4hQ4jBU0YgBMU4XLE-10">
          <mxGeometry x="260" width="30" height="20" as="geometry">
            <mxRectangle width="30" height="20" as="alternateBounds" />
          </mxGeometry>
        </mxCell>
        <mxCell id="ZtE4hQ4jBU0YgBMU4XLE-15" value="" style="shape=partialRectangle;html=1;whiteSpace=wrap;connectable=0;strokeColor=inherit;overflow=hidden;fillColor=none;top=0;left=0;bottom=0;right=0;pointerEvents=1;" vertex="1" visible="0" parent="ZtE4hQ4jBU0YgBMU4XLE-10">
          <mxGeometry x="290" width="80" height="20" as="geometry">
            <mxRectangle width="80" height="20" as="alternateBounds" />
          </mxGeometry>
        </mxCell>
        <mxCell id="ZtE4hQ4jBU0YgBMU4XLE-16" value="" style="shape=partialRectangle;html=1;whiteSpace=wrap;connectable=0;strokeColor=inherit;overflow=hidden;fillColor=none;top=0;left=0;bottom=0;right=0;pointerEvents=1;" vertex="1" visible="0" parent="ZtE4hQ4jBU0YgBMU4XLE-10">
          <mxGeometry x="370" width="100" height="20" as="geometry">
            <mxRectangle width="100" height="20" as="alternateBounds" />
          </mxGeometry>
        </mxCell>
        <mxCell id="ZtE4hQ4jBU0YgBMU4XLE-17" value="" style="shape=partialRectangle;html=1;whiteSpace=wrap;connectable=0;strokeColor=inherit;overflow=hidden;fillColor=none;top=0;left=0;bottom=0;right=0;pointerEvents=1;" vertex="1" visible="0" parent="ZtE4hQ4jBU0YgBMU4XLE-10">
          <mxGeometry x="470" width="110" height="20" as="geometry">
            <mxRectangle width="110" height="20" as="alternateBounds" />
          </mxGeometry>
        </mxCell>
        <mxCell id="ZtE4hQ4jBU0YgBMU4XLE-18" value="" style="shape=tableRow;horizontal=0;startSize=0;swimlaneHead=0;swimlaneBody=0;strokeColor=inherit;top=0;left=0;bottom=0;right=0;collapsible=0;dropTarget=0;fillColor=none;points=[[0,0.5],[1,0.5]];portConstraint=eastwest;" vertex="1" parent="ZtE4hQ4jBU0YgBMU4XLE-1">
          <mxGeometry y="40" width="580" height="40" as="geometry" />
        </mxCell>
        <mxCell id="ZtE4hQ4jBU0YgBMU4XLE-19" value="Dirrector" style="shape=partialRectangle;html=1;whiteSpace=wrap;connectable=0;strokeColor=inherit;overflow=hidden;fillColor=none;top=0;left=0;bottom=0;right=0;pointerEvents=1;" vertex="1" parent="ZtE4hQ4jBU0YgBMU4XLE-18">
          <mxGeometry width="60" height="40" as="geometry">
            <mxRectangle width="60" height="40" as="alternateBounds" />
          </mxGeometry>
        </mxCell>
        <mxCell id="ZtE4hQ4jBU0YgBMU4XLE-20" value="192.168.0.0/28" style="shape=partialRectangle;html=1;whiteSpace=wrap;connectable=0;strokeColor=inherit;overflow=hidden;fillColor=none;top=0;left=0;bottom=0;right=0;pointerEvents=1;" vertex="1" parent="ZtE4hQ4jBU0YgBMU4XLE-18">
          <mxGeometry x="60" width="100" height="40" as="geometry">
            <mxRectangle width="100" height="40" as="alternateBounds" />
          </mxGeometry>
        </mxCell>
        <mxCell id="ZtE4hQ4jBU0YgBMU4XLE-21" value="255.255.255.240" style="shape=partialRectangle;html=1;whiteSpace=wrap;connectable=0;strokeColor=inherit;overflow=hidden;fillColor=none;top=0;left=0;bottom=0;right=0;pointerEvents=1;" vertex="1" parent="ZtE4hQ4jBU0YgBMU4XLE-18">
          <mxGeometry x="160" width="100" height="40" as="geometry">
            <mxRectangle width="100" height="40" as="alternateBounds" />
          </mxGeometry>
        </mxCell>
        <mxCell id="ZtE4hQ4jBU0YgBMU4XLE-22" value="14" style="shape=partialRectangle;html=1;whiteSpace=wrap;connectable=0;strokeColor=inherit;overflow=hidden;fillColor=none;top=0;left=0;bottom=0;right=0;pointerEvents=1;" vertex="1" parent="ZtE4hQ4jBU0YgBMU4XLE-18">
          <mxGeometry x="260" width="30" height="40" as="geometry">
            <mxRectangle width="30" height="40" as="alternateBounds" />
          </mxGeometry>
        </mxCell>
        <mxCell id="ZtE4hQ4jBU0YgBMU4XLE-23" value="192.168.0.1" style="shape=partialRectangle;html=1;whiteSpace=wrap;connectable=0;strokeColor=inherit;overflow=hidden;fillColor=none;top=0;left=0;bottom=0;right=0;pointerEvents=1;" vertex="1" parent="ZtE4hQ4jBU0YgBMU4XLE-18">
          <mxGeometry x="290" width="80" height="40" as="geometry">
            <mxRectangle width="80" height="40" as="alternateBounds" />
          </mxGeometry>
        </mxCell>
        <mxCell id="ZtE4hQ4jBU0YgBMU4XLE-24" value="192.168.0.14" style="shape=partialRectangle;html=1;whiteSpace=wrap;connectable=0;strokeColor=inherit;overflow=hidden;fillColor=none;top=0;left=0;bottom=0;right=0;pointerEvents=1;" vertex="1" parent="ZtE4hQ4jBU0YgBMU4XLE-18">
          <mxGeometry x="370" width="100" height="40" as="geometry">
            <mxRectangle width="100" height="40" as="alternateBounds" />
          </mxGeometry>
        </mxCell>
        <mxCell id="ZtE4hQ4jBU0YgBMU4XLE-25" value="192.168.0.15" style="shape=partialRectangle;html=1;whiteSpace=wrap;connectable=0;strokeColor=inherit;overflow=hidden;fillColor=none;top=0;left=0;bottom=0;right=0;pointerEvents=1;" vertex="1" parent="ZtE4hQ4jBU0YgBMU4XLE-18">
          <mxGeometry x="470" width="110" height="40" as="geometry">
            <mxRectangle width="110" height="40" as="alternateBounds" />
          </mxGeometry>
        </mxCell>
        <mxCell id="ZtE4hQ4jBU0YgBMU4XLE-51" style="shape=tableRow;horizontal=0;startSize=0;swimlaneHead=0;swimlaneBody=0;strokeColor=inherit;top=0;left=0;bottom=0;right=0;collapsible=0;dropTarget=0;fillColor=none;points=[[0,0.5],[1,0.5]];portConstraint=eastwest;" vertex="1" parent="ZtE4hQ4jBU0YgBMU4XLE-1">
          <mxGeometry y="80" width="580" height="40" as="geometry" />
        </mxCell>
        <mxCell id="ZtE4hQ4jBU0YgBMU4XLE-52" value="Office Hadware" style="shape=partialRectangle;html=1;whiteSpace=wrap;connectable=0;strokeColor=inherit;overflow=hidden;fillColor=none;top=0;left=0;bottom=0;right=0;pointerEvents=1;" vertex="1" parent="ZtE4hQ4jBU0YgBMU4XLE-51">
          <mxGeometry width="60" height="40" as="geometry">
            <mxRectangle width="60" height="40" as="alternateBounds" />
          </mxGeometry>
        </mxCell>
        <mxCell id="ZtE4hQ4jBU0YgBMU4XLE-53" value="192.168.0.32/28" style="shape=partialRectangle;html=1;whiteSpace=wrap;connectable=0;strokeColor=inherit;overflow=hidden;fillColor=none;top=0;left=0;bottom=0;right=0;pointerEvents=1;" vertex="1" parent="ZtE4hQ4jBU0YgBMU4XLE-51">
          <mxGeometry x="60" width="100" height="40" as="geometry">
            <mxRectangle width="100" height="40" as="alternateBounds" />
          </mxGeometry>
        </mxCell>
        <mxCell id="ZtE4hQ4jBU0YgBMU4XLE-54" value="255.255.255.240" style="shape=partialRectangle;html=1;whiteSpace=wrap;connectable=0;strokeColor=inherit;overflow=hidden;fillColor=none;top=0;left=0;bottom=0;right=0;pointerEvents=1;" vertex="1" parent="ZtE4hQ4jBU0YgBMU4XLE-51">
          <mxGeometry x="160" width="100" height="40" as="geometry">
            <mxRectangle width="100" height="40" as="alternateBounds" />
          </mxGeometry>
        </mxCell>
        <mxCell id="ZtE4hQ4jBU0YgBMU4XLE-55" value="14" style="shape=partialRectangle;html=1;whiteSpace=wrap;connectable=0;strokeColor=inherit;overflow=hidden;fillColor=none;top=0;left=0;bottom=0;right=0;pointerEvents=1;" vertex="1" parent="ZtE4hQ4jBU0YgBMU4XLE-51">
          <mxGeometry x="260" width="30" height="40" as="geometry">
            <mxRectangle width="30" height="40" as="alternateBounds" />
          </mxGeometry>
        </mxCell>
        <mxCell id="ZtE4hQ4jBU0YgBMU4XLE-56" value="192.168.0.33" style="shape=partialRectangle;html=1;whiteSpace=wrap;connectable=0;strokeColor=inherit;overflow=hidden;fillColor=none;top=0;left=0;bottom=0;right=0;pointerEvents=1;" vertex="1" parent="ZtE4hQ4jBU0YgBMU4XLE-51">
          <mxGeometry x="290" width="80" height="40" as="geometry">
            <mxRectangle width="80" height="40" as="alternateBounds" />
          </mxGeometry>
        </mxCell>
        <mxCell id="ZtE4hQ4jBU0YgBMU4XLE-57" value="192.168.0.46" style="shape=partialRectangle;html=1;whiteSpace=wrap;connectable=0;strokeColor=inherit;overflow=hidden;fillColor=none;top=0;left=0;bottom=0;right=0;pointerEvents=1;" vertex="1" parent="ZtE4hQ4jBU0YgBMU4XLE-51">
          <mxGeometry x="370" width="100" height="40" as="geometry">
            <mxRectangle width="100" height="40" as="alternateBounds" />
          </mxGeometry>
        </mxCell>
        <mxCell id="ZtE4hQ4jBU0YgBMU4XLE-58" value="192.168.0.47" style="shape=partialRectangle;html=1;whiteSpace=wrap;connectable=0;strokeColor=inherit;overflow=hidden;fillColor=none;top=0;left=0;bottom=0;right=0;pointerEvents=1;" vertex="1" parent="ZtE4hQ4jBU0YgBMU4XLE-51">
          <mxGeometry x="470" width="110" height="40" as="geometry">
            <mxRectangle width="110" height="40" as="alternateBounds" />
          </mxGeometry>
        </mxCell>
        <mxCell id="ZtE4hQ4jBU0YgBMU4XLE-59" style="shape=tableRow;horizontal=0;startSize=0;swimlaneHead=0;swimlaneBody=0;strokeColor=inherit;top=0;left=0;bottom=0;right=0;collapsible=0;dropTarget=0;fillColor=none;points=[[0,0.5],[1,0.5]];portConstraint=eastwest;" vertex="1" parent="ZtE4hQ4jBU0YgBMU4XLE-1">
          <mxGeometry y="120" width="580" height="40" as="geometry" />
        </mxCell>
        <mxCell id="ZtE4hQ4jBU0YgBMU4XLE-60" value="Wifi" style="shape=partialRectangle;html=1;whiteSpace=wrap;connectable=0;strokeColor=inherit;overflow=hidden;fillColor=none;top=0;left=0;bottom=0;right=0;pointerEvents=1;" vertex="1" parent="ZtE4hQ4jBU0YgBMU4XLE-59">
          <mxGeometry width="60" height="40" as="geometry">
            <mxRectangle width="60" height="40" as="alternateBounds" />
          </mxGeometry>
        </mxCell>
        <mxCell id="ZtE4hQ4jBU0YgBMU4XLE-61" value="192.168.0.64/26" style="shape=partialRectangle;html=1;whiteSpace=wrap;connectable=0;strokeColor=inherit;overflow=hidden;fillColor=none;top=0;left=0;bottom=0;right=0;pointerEvents=1;" vertex="1" parent="ZtE4hQ4jBU0YgBMU4XLE-59">
          <mxGeometry x="60" width="100" height="40" as="geometry">
            <mxRectangle width="100" height="40" as="alternateBounds" />
          </mxGeometry>
        </mxCell>
        <mxCell id="ZtE4hQ4jBU0YgBMU4XLE-62" value="255.255.255.192" style="shape=partialRectangle;html=1;whiteSpace=wrap;connectable=0;strokeColor=inherit;overflow=hidden;fillColor=none;top=0;left=0;bottom=0;right=0;pointerEvents=1;" vertex="1" parent="ZtE4hQ4jBU0YgBMU4XLE-59">
          <mxGeometry x="160" width="100" height="40" as="geometry">
            <mxRectangle width="100" height="40" as="alternateBounds" />
          </mxGeometry>
        </mxCell>
        <mxCell id="ZtE4hQ4jBU0YgBMU4XLE-63" value="63" style="shape=partialRectangle;html=1;whiteSpace=wrap;connectable=0;strokeColor=inherit;overflow=hidden;fillColor=none;top=0;left=0;bottom=0;right=0;pointerEvents=1;" vertex="1" parent="ZtE4hQ4jBU0YgBMU4XLE-59">
          <mxGeometry x="260" width="30" height="40" as="geometry">
            <mxRectangle width="30" height="40" as="alternateBounds" />
          </mxGeometry>
        </mxCell>
        <mxCell id="ZtE4hQ4jBU0YgBMU4XLE-64" value="192.168.0.65" style="shape=partialRectangle;html=1;whiteSpace=wrap;connectable=0;strokeColor=inherit;overflow=hidden;fillColor=none;top=0;left=0;bottom=0;right=0;pointerEvents=1;" vertex="1" parent="ZtE4hQ4jBU0YgBMU4XLE-59">
          <mxGeometry x="290" width="80" height="40" as="geometry">
            <mxRectangle width="80" height="40" as="alternateBounds" />
          </mxGeometry>
        </mxCell>
        <mxCell id="ZtE4hQ4jBU0YgBMU4XLE-65" value="192.168.0.126" style="shape=partialRectangle;html=1;whiteSpace=wrap;connectable=0;strokeColor=inherit;overflow=hidden;fillColor=none;top=0;left=0;bottom=0;right=0;pointerEvents=1;" vertex="1" parent="ZtE4hQ4jBU0YgBMU4XLE-59">
          <mxGeometry x="370" width="100" height="40" as="geometry">
            <mxRectangle width="100" height="40" as="alternateBounds" />
          </mxGeometry>
        </mxCell>
        <mxCell id="ZtE4hQ4jBU0YgBMU4XLE-66" value="192.168.0.127" style="shape=partialRectangle;html=1;whiteSpace=wrap;connectable=0;strokeColor=inherit;overflow=hidden;fillColor=none;top=0;left=0;bottom=0;right=0;pointerEvents=1;" vertex="1" parent="ZtE4hQ4jBU0YgBMU4XLE-59">
          <mxGeometry x="470" width="110" height="40" as="geometry">
            <mxRectangle width="110" height="40" as="alternateBounds" />
          </mxGeometry>
        </mxCell>
        <mxCell id="ZtE4hQ4jBU0YgBMU4XLE-67" style="shape=tableRow;horizontal=0;startSize=0;swimlaneHead=0;swimlaneBody=0;strokeColor=inherit;top=0;left=0;bottom=0;right=0;collapsible=0;dropTarget=0;fillColor=none;points=[[0,0.5],[1,0.5]];portConstraint=eastwest;" vertex="1" parent="ZtE4hQ4jBU0YgBMU4XLE-1">
          <mxGeometry y="160" width="580" height="40" as="geometry" />
        </mxCell>
        <mxCell id="ZtE4hQ4jBU0YgBMU4XLE-68" value="Сеть office1" style="shape=partialRectangle;html=1;whiteSpace=wrap;connectable=0;strokeColor=inherit;overflow=hidden;fillColor=none;top=0;left=0;bottom=0;right=0;pointerEvents=1;rowspan=1;colspan=7;" vertex="1" parent="ZtE4hQ4jBU0YgBMU4XLE-67">
          <mxGeometry width="580" height="40" as="geometry">
            <mxRectangle width="60" height="40" as="alternateBounds" />
          </mxGeometry>
        </mxCell>
        <mxCell id="ZtE4hQ4jBU0YgBMU4XLE-69" style="shape=partialRectangle;html=1;whiteSpace=wrap;connectable=0;strokeColor=inherit;overflow=hidden;fillColor=none;top=0;left=0;bottom=0;right=0;pointerEvents=1;" vertex="1" visible="0" parent="ZtE4hQ4jBU0YgBMU4XLE-67">
          <mxGeometry x="60" width="100" height="40" as="geometry">
            <mxRectangle width="100" height="40" as="alternateBounds" />
          </mxGeometry>
        </mxCell>
        <mxCell id="ZtE4hQ4jBU0YgBMU4XLE-70" style="shape=partialRectangle;html=1;whiteSpace=wrap;connectable=0;strokeColor=inherit;overflow=hidden;fillColor=none;top=0;left=0;bottom=0;right=0;pointerEvents=1;" vertex="1" visible="0" parent="ZtE4hQ4jBU0YgBMU4XLE-67">
          <mxGeometry x="160" width="100" height="40" as="geometry">
            <mxRectangle width="100" height="40" as="alternateBounds" />
          </mxGeometry>
        </mxCell>
        <mxCell id="ZtE4hQ4jBU0YgBMU4XLE-71" style="shape=partialRectangle;html=1;whiteSpace=wrap;connectable=0;strokeColor=inherit;overflow=hidden;fillColor=none;top=0;left=0;bottom=0;right=0;pointerEvents=1;" vertex="1" visible="0" parent="ZtE4hQ4jBU0YgBMU4XLE-67">
          <mxGeometry x="260" width="30" height="40" as="geometry">
            <mxRectangle width="30" height="40" as="alternateBounds" />
          </mxGeometry>
        </mxCell>
        <mxCell id="ZtE4hQ4jBU0YgBMU4XLE-72" style="shape=partialRectangle;html=1;whiteSpace=wrap;connectable=0;strokeColor=inherit;overflow=hidden;fillColor=none;top=0;left=0;bottom=0;right=0;pointerEvents=1;" vertex="1" visible="0" parent="ZtE4hQ4jBU0YgBMU4XLE-67">
          <mxGeometry x="290" width="80" height="40" as="geometry">
            <mxRectangle width="80" height="40" as="alternateBounds" />
          </mxGeometry>
        </mxCell>
        <mxCell id="ZtE4hQ4jBU0YgBMU4XLE-73" style="shape=partialRectangle;html=1;whiteSpace=wrap;connectable=0;strokeColor=inherit;overflow=hidden;fillColor=none;top=0;left=0;bottom=0;right=0;pointerEvents=1;" vertex="1" visible="0" parent="ZtE4hQ4jBU0YgBMU4XLE-67">
          <mxGeometry x="370" width="100" height="40" as="geometry">
            <mxRectangle width="100" height="40" as="alternateBounds" />
          </mxGeometry>
        </mxCell>
        <mxCell id="ZtE4hQ4jBU0YgBMU4XLE-74" style="shape=partialRectangle;html=1;whiteSpace=wrap;connectable=0;strokeColor=inherit;overflow=hidden;fillColor=none;top=0;left=0;bottom=0;right=0;pointerEvents=1;" vertex="1" visible="0" parent="ZtE4hQ4jBU0YgBMU4XLE-67">
          <mxGeometry x="470" width="110" height="40" as="geometry">
            <mxRectangle width="110" height="40" as="alternateBounds" />
          </mxGeometry>
        </mxCell>
        <mxCell id="ZtE4hQ4jBU0YgBMU4XLE-75" style="shape=tableRow;horizontal=0;startSize=0;swimlaneHead=0;swimlaneBody=0;strokeColor=inherit;top=0;left=0;bottom=0;right=0;collapsible=0;dropTarget=0;fillColor=none;points=[[0,0.5],[1,0.5]];portConstraint=eastwest;" vertex="1" parent="ZtE4hQ4jBU0YgBMU4XLE-1">
          <mxGeometry y="200" width="580" height="40" as="geometry" />
        </mxCell>
        <mxCell id="ZtE4hQ4jBU0YgBMU4XLE-76" value="Dev" style="shape=partialRectangle;html=1;whiteSpace=wrap;connectable=0;strokeColor=inherit;overflow=hidden;fillColor=none;top=0;left=0;bottom=0;right=0;pointerEvents=1;" vertex="1" parent="ZtE4hQ4jBU0YgBMU4XLE-75">
          <mxGeometry width="60" height="40" as="geometry">
            <mxRectangle width="60" height="40" as="alternateBounds" />
          </mxGeometry>
        </mxCell>
        <mxCell id="ZtE4hQ4jBU0YgBMU4XLE-77" value="192.168.2.0/26" style="shape=partialRectangle;html=1;whiteSpace=wrap;connectable=0;strokeColor=inherit;overflow=hidden;fillColor=none;top=0;left=0;bottom=0;right=0;pointerEvents=1;" vertex="1" parent="ZtE4hQ4jBU0YgBMU4XLE-75">
          <mxGeometry x="60" width="100" height="40" as="geometry">
            <mxRectangle width="100" height="40" as="alternateBounds" />
          </mxGeometry>
        </mxCell>
        <mxCell id="ZtE4hQ4jBU0YgBMU4XLE-78" value="255.255.255.192" style="shape=partialRectangle;html=1;whiteSpace=wrap;connectable=0;strokeColor=inherit;overflow=hidden;fillColor=none;top=0;left=0;bottom=0;right=0;pointerEvents=1;" vertex="1" parent="ZtE4hQ4jBU0YgBMU4XLE-75">
          <mxGeometry x="160" width="100" height="40" as="geometry">
            <mxRectangle width="100" height="40" as="alternateBounds" />
          </mxGeometry>
        </mxCell>
        <mxCell id="ZtE4hQ4jBU0YgBMU4XLE-79" value="63" style="shape=partialRectangle;html=1;whiteSpace=wrap;connectable=0;strokeColor=inherit;overflow=hidden;fillColor=none;top=0;left=0;bottom=0;right=0;pointerEvents=1;" vertex="1" parent="ZtE4hQ4jBU0YgBMU4XLE-75">
          <mxGeometry x="260" width="30" height="40" as="geometry">
            <mxRectangle width="30" height="40" as="alternateBounds" />
          </mxGeometry>
        </mxCell>
        <mxCell id="ZtE4hQ4jBU0YgBMU4XLE-80" value="192.168.2.1" style="shape=partialRectangle;html=1;whiteSpace=wrap;connectable=0;strokeColor=inherit;overflow=hidden;fillColor=none;top=0;left=0;bottom=0;right=0;pointerEvents=1;" vertex="1" parent="ZtE4hQ4jBU0YgBMU4XLE-75">
          <mxGeometry x="290" width="80" height="40" as="geometry">
            <mxRectangle width="80" height="40" as="alternateBounds" />
          </mxGeometry>
        </mxCell>
        <mxCell id="ZtE4hQ4jBU0YgBMU4XLE-81" value="192.168.2.62" style="shape=partialRectangle;html=1;whiteSpace=wrap;connectable=0;strokeColor=inherit;overflow=hidden;fillColor=none;top=0;left=0;bottom=0;right=0;pointerEvents=1;" vertex="1" parent="ZtE4hQ4jBU0YgBMU4XLE-75">
          <mxGeometry x="370" width="100" height="40" as="geometry">
            <mxRectangle width="100" height="40" as="alternateBounds" />
          </mxGeometry>
        </mxCell>
        <mxCell id="ZtE4hQ4jBU0YgBMU4XLE-82" value="192.168.2.63" style="shape=partialRectangle;html=1;whiteSpace=wrap;connectable=0;strokeColor=inherit;overflow=hidden;fillColor=none;top=0;left=0;bottom=0;right=0;pointerEvents=1;" vertex="1" parent="ZtE4hQ4jBU0YgBMU4XLE-75">
          <mxGeometry x="470" width="110" height="40" as="geometry">
            <mxRectangle width="110" height="40" as="alternateBounds" />
          </mxGeometry>
        </mxCell>
        <mxCell id="ZtE4hQ4jBU0YgBMU4XLE-99" style="shape=tableRow;horizontal=0;startSize=0;swimlaneHead=0;swimlaneBody=0;strokeColor=inherit;top=0;left=0;bottom=0;right=0;collapsible=0;dropTarget=0;fillColor=none;points=[[0,0.5],[1,0.5]];portConstraint=eastwest;" vertex="1" parent="ZtE4hQ4jBU0YgBMU4XLE-1">
          <mxGeometry y="240" width="580" height="40" as="geometry" />
        </mxCell>
        <mxCell id="ZtE4hQ4jBU0YgBMU4XLE-100" value="Test servers" style="shape=partialRectangle;html=1;whiteSpace=wrap;connectable=0;strokeColor=inherit;overflow=hidden;fillColor=none;top=0;left=0;bottom=0;right=0;pointerEvents=1;" vertex="1" parent="ZtE4hQ4jBU0YgBMU4XLE-99">
          <mxGeometry width="60" height="40" as="geometry">
            <mxRectangle width="60" height="40" as="alternateBounds" />
          </mxGeometry>
        </mxCell>
        <mxCell id="ZtE4hQ4jBU0YgBMU4XLE-101" value="192.168.2.64/26" style="shape=partialRectangle;html=1;whiteSpace=wrap;connectable=0;strokeColor=inherit;overflow=hidden;fillColor=none;top=0;left=0;bottom=0;right=0;pointerEvents=1;" vertex="1" parent="ZtE4hQ4jBU0YgBMU4XLE-99">
          <mxGeometry x="60" width="100" height="40" as="geometry">
            <mxRectangle width="100" height="40" as="alternateBounds" />
          </mxGeometry>
        </mxCell>
        <mxCell id="ZtE4hQ4jBU0YgBMU4XLE-102" value="255.255.255.192" style="shape=partialRectangle;html=1;whiteSpace=wrap;connectable=0;strokeColor=inherit;overflow=hidden;fillColor=none;top=0;left=0;bottom=0;right=0;pointerEvents=1;" vertex="1" parent="ZtE4hQ4jBU0YgBMU4XLE-99">
          <mxGeometry x="160" width="100" height="40" as="geometry">
            <mxRectangle width="100" height="40" as="alternateBounds" />
          </mxGeometry>
        </mxCell>
        <mxCell id="ZtE4hQ4jBU0YgBMU4XLE-103" value="63" style="shape=partialRectangle;html=1;whiteSpace=wrap;connectable=0;strokeColor=inherit;overflow=hidden;fillColor=none;top=0;left=0;bottom=0;right=0;pointerEvents=1;" vertex="1" parent="ZtE4hQ4jBU0YgBMU4XLE-99">
          <mxGeometry x="260" width="30" height="40" as="geometry">
            <mxRectangle width="30" height="40" as="alternateBounds" />
          </mxGeometry>
        </mxCell>
        <mxCell id="ZtE4hQ4jBU0YgBMU4XLE-104" value="192.168.2.65" style="shape=partialRectangle;html=1;whiteSpace=wrap;connectable=0;strokeColor=inherit;overflow=hidden;fillColor=none;top=0;left=0;bottom=0;right=0;pointerEvents=1;" vertex="1" parent="ZtE4hQ4jBU0YgBMU4XLE-99">
          <mxGeometry x="290" width="80" height="40" as="geometry">
            <mxRectangle width="80" height="40" as="alternateBounds" />
          </mxGeometry>
        </mxCell>
        <mxCell id="ZtE4hQ4jBU0YgBMU4XLE-105" value="192.168.2.126" style="shape=partialRectangle;html=1;whiteSpace=wrap;connectable=0;strokeColor=inherit;overflow=hidden;fillColor=none;top=0;left=0;bottom=0;right=0;pointerEvents=1;" vertex="1" parent="ZtE4hQ4jBU0YgBMU4XLE-99">
          <mxGeometry x="370" width="100" height="40" as="geometry">
            <mxRectangle width="100" height="40" as="alternateBounds" />
          </mxGeometry>
        </mxCell>
        <mxCell id="ZtE4hQ4jBU0YgBMU4XLE-106" value="192.168.2.127" style="shape=partialRectangle;html=1;whiteSpace=wrap;connectable=0;strokeColor=inherit;overflow=hidden;fillColor=none;top=0;left=0;bottom=0;right=0;pointerEvents=1;" vertex="1" parent="ZtE4hQ4jBU0YgBMU4XLE-99">
          <mxGeometry x="470" width="110" height="40" as="geometry">
            <mxRectangle width="110" height="40" as="alternateBounds" />
          </mxGeometry>
        </mxCell>
        <mxCell id="ZtE4hQ4jBU0YgBMU4XLE-91" style="shape=tableRow;horizontal=0;startSize=0;swimlaneHead=0;swimlaneBody=0;strokeColor=inherit;top=0;left=0;bottom=0;right=0;collapsible=0;dropTarget=0;fillColor=none;points=[[0,0.5],[1,0.5]];portConstraint=eastwest;" vertex="1" parent="ZtE4hQ4jBU0YgBMU4XLE-1">
          <mxGeometry y="280" width="580" height="40" as="geometry" />
        </mxCell>
        <mxCell id="ZtE4hQ4jBU0YgBMU4XLE-92" value="Managers" style="shape=partialRectangle;html=1;whiteSpace=wrap;connectable=0;strokeColor=inherit;overflow=hidden;fillColor=none;top=0;left=0;bottom=0;right=0;pointerEvents=1;" vertex="1" parent="ZtE4hQ4jBU0YgBMU4XLE-91">
          <mxGeometry width="60" height="40" as="geometry">
            <mxRectangle width="60" height="40" as="alternateBounds" />
          </mxGeometry>
        </mxCell>
        <mxCell id="ZtE4hQ4jBU0YgBMU4XLE-93" value="192.168.2.128/26" style="shape=partialRectangle;html=1;whiteSpace=wrap;connectable=0;strokeColor=inherit;overflow=hidden;fillColor=none;top=0;left=0;bottom=0;right=0;pointerEvents=1;" vertex="1" parent="ZtE4hQ4jBU0YgBMU4XLE-91">
          <mxGeometry x="60" width="100" height="40" as="geometry">
            <mxRectangle width="100" height="40" as="alternateBounds" />
          </mxGeometry>
        </mxCell>
        <mxCell id="ZtE4hQ4jBU0YgBMU4XLE-94" value="255.255.255.192" style="shape=partialRectangle;html=1;whiteSpace=wrap;connectable=0;strokeColor=inherit;overflow=hidden;fillColor=none;top=0;left=0;bottom=0;right=0;pointerEvents=1;" vertex="1" parent="ZtE4hQ4jBU0YgBMU4XLE-91">
          <mxGeometry x="160" width="100" height="40" as="geometry">
            <mxRectangle width="100" height="40" as="alternateBounds" />
          </mxGeometry>
        </mxCell>
        <mxCell id="ZtE4hQ4jBU0YgBMU4XLE-95" value="63" style="shape=partialRectangle;html=1;whiteSpace=wrap;connectable=0;strokeColor=inherit;overflow=hidden;fillColor=none;top=0;left=0;bottom=0;right=0;pointerEvents=1;" vertex="1" parent="ZtE4hQ4jBU0YgBMU4XLE-91">
          <mxGeometry x="260" width="30" height="40" as="geometry">
            <mxRectangle width="30" height="40" as="alternateBounds" />
          </mxGeometry>
        </mxCell>
        <mxCell id="ZtE4hQ4jBU0YgBMU4XLE-96" value="192.168.2.129" style="shape=partialRectangle;html=1;whiteSpace=wrap;connectable=0;strokeColor=inherit;overflow=hidden;fillColor=none;top=0;left=0;bottom=0;right=0;pointerEvents=1;" vertex="1" parent="ZtE4hQ4jBU0YgBMU4XLE-91">
          <mxGeometry x="290" width="80" height="40" as="geometry">
            <mxRectangle width="80" height="40" as="alternateBounds" />
          </mxGeometry>
        </mxCell>
        <mxCell id="ZtE4hQ4jBU0YgBMU4XLE-97" value="192.168.190" style="shape=partialRectangle;html=1;whiteSpace=wrap;connectable=0;strokeColor=inherit;overflow=hidden;fillColor=none;top=0;left=0;bottom=0;right=0;pointerEvents=1;" vertex="1" parent="ZtE4hQ4jBU0YgBMU4XLE-91">
          <mxGeometry x="370" width="100" height="40" as="geometry">
            <mxRectangle width="100" height="40" as="alternateBounds" />
          </mxGeometry>
        </mxCell>
        <mxCell id="ZtE4hQ4jBU0YgBMU4XLE-98" value="192.168.191" style="shape=partialRectangle;html=1;whiteSpace=wrap;connectable=0;strokeColor=inherit;overflow=hidden;fillColor=none;top=0;left=0;bottom=0;right=0;pointerEvents=1;" vertex="1" parent="ZtE4hQ4jBU0YgBMU4XLE-91">
          <mxGeometry x="470" width="110" height="40" as="geometry">
            <mxRectangle width="110" height="40" as="alternateBounds" />
          </mxGeometry>
        </mxCell>
        <mxCell id="ZtE4hQ4jBU0YgBMU4XLE-83" style="shape=tableRow;horizontal=0;startSize=0;swimlaneHead=0;swimlaneBody=0;strokeColor=inherit;top=0;left=0;bottom=0;right=0;collapsible=0;dropTarget=0;fillColor=none;points=[[0,0.5],[1,0.5]];portConstraint=eastwest;" vertex="1" parent="ZtE4hQ4jBU0YgBMU4XLE-1">
          <mxGeometry y="320" width="580" height="40" as="geometry" />
        </mxCell>
        <mxCell id="ZtE4hQ4jBU0YgBMU4XLE-84" value="Office Hardware" style="shape=partialRectangle;html=1;whiteSpace=wrap;connectable=0;strokeColor=inherit;overflow=hidden;fillColor=none;top=0;left=0;bottom=0;right=0;pointerEvents=1;" vertex="1" parent="ZtE4hQ4jBU0YgBMU4XLE-83">
          <mxGeometry width="60" height="40" as="geometry">
            <mxRectangle width="60" height="40" as="alternateBounds" />
          </mxGeometry>
        </mxCell>
        <mxCell id="ZtE4hQ4jBU0YgBMU4XLE-85" value="192.168.2.192/26" style="shape=partialRectangle;html=1;whiteSpace=wrap;connectable=0;strokeColor=inherit;overflow=hidden;fillColor=none;top=0;left=0;bottom=0;right=0;pointerEvents=1;" vertex="1" parent="ZtE4hQ4jBU0YgBMU4XLE-83">
          <mxGeometry x="60" width="100" height="40" as="geometry">
            <mxRectangle width="100" height="40" as="alternateBounds" />
          </mxGeometry>
        </mxCell>
        <mxCell id="ZtE4hQ4jBU0YgBMU4XLE-86" value="255.255.255.192" style="shape=partialRectangle;html=1;whiteSpace=wrap;connectable=0;strokeColor=inherit;overflow=hidden;fillColor=none;top=0;left=0;bottom=0;right=0;pointerEvents=1;" vertex="1" parent="ZtE4hQ4jBU0YgBMU4XLE-83">
          <mxGeometry x="160" width="100" height="40" as="geometry">
            <mxRectangle width="100" height="40" as="alternateBounds" />
          </mxGeometry>
        </mxCell>
        <mxCell id="ZtE4hQ4jBU0YgBMU4XLE-87" value="63" style="shape=partialRectangle;html=1;whiteSpace=wrap;connectable=0;strokeColor=inherit;overflow=hidden;fillColor=none;top=0;left=0;bottom=0;right=0;pointerEvents=1;" vertex="1" parent="ZtE4hQ4jBU0YgBMU4XLE-83">
          <mxGeometry x="260" width="30" height="40" as="geometry">
            <mxRectangle width="30" height="40" as="alternateBounds" />
          </mxGeometry>
        </mxCell>
        <mxCell id="ZtE4hQ4jBU0YgBMU4XLE-88" value="192.168.2.193" style="shape=partialRectangle;html=1;whiteSpace=wrap;connectable=0;strokeColor=inherit;overflow=hidden;fillColor=none;top=0;left=0;bottom=0;right=0;pointerEvents=1;" vertex="1" parent="ZtE4hQ4jBU0YgBMU4XLE-83">
          <mxGeometry x="290" width="80" height="40" as="geometry">
            <mxRectangle width="80" height="40" as="alternateBounds" />
          </mxGeometry>
        </mxCell>
        <mxCell id="ZtE4hQ4jBU0YgBMU4XLE-89" value="192.168.2.254" style="shape=partialRectangle;html=1;whiteSpace=wrap;connectable=0;strokeColor=inherit;overflow=hidden;fillColor=none;top=0;left=0;bottom=0;right=0;pointerEvents=1;" vertex="1" parent="ZtE4hQ4jBU0YgBMU4XLE-83">
          <mxGeometry x="370" width="100" height="40" as="geometry">
            <mxRectangle width="100" height="40" as="alternateBounds" />
          </mxGeometry>
        </mxCell>
        <mxCell id="ZtE4hQ4jBU0YgBMU4XLE-90" value="192.168.2.255" style="shape=partialRectangle;html=1;whiteSpace=wrap;connectable=0;strokeColor=inherit;overflow=hidden;fillColor=none;top=0;left=0;bottom=0;right=0;pointerEvents=1;" vertex="1" parent="ZtE4hQ4jBU0YgBMU4XLE-83">
          <mxGeometry x="470" width="110" height="40" as="geometry">
            <mxRectangle width="110" height="40" as="alternateBounds" />
          </mxGeometry>
        </mxCell>
        <mxCell id="ZtE4hQ4jBU0YgBMU4XLE-115" style="shape=tableRow;horizontal=0;startSize=0;swimlaneHead=0;swimlaneBody=0;strokeColor=inherit;top=0;left=0;bottom=0;right=0;collapsible=0;dropTarget=0;fillColor=none;points=[[0,0.5],[1,0.5]];portConstraint=eastwest;" vertex="1" parent="ZtE4hQ4jBU0YgBMU4XLE-1">
          <mxGeometry y="360" width="580" height="40" as="geometry" />
        </mxCell>
        <mxCell id="ZtE4hQ4jBU0YgBMU4XLE-116" value="Office 2 network" style="shape=partialRectangle;html=1;whiteSpace=wrap;connectable=0;strokeColor=inherit;overflow=hidden;fillColor=none;top=0;left=0;bottom=0;right=0;pointerEvents=1;rowspan=1;colspan=7;" vertex="1" parent="ZtE4hQ4jBU0YgBMU4XLE-115">
          <mxGeometry width="580" height="40" as="geometry">
            <mxRectangle width="60" height="40" as="alternateBounds" />
          </mxGeometry>
        </mxCell>
        <mxCell id="ZtE4hQ4jBU0YgBMU4XLE-117" style="shape=partialRectangle;html=1;whiteSpace=wrap;connectable=0;strokeColor=inherit;overflow=hidden;fillColor=none;top=0;left=0;bottom=0;right=0;pointerEvents=1;" vertex="1" visible="0" parent="ZtE4hQ4jBU0YgBMU4XLE-115">
          <mxGeometry x="60" width="100" height="40" as="geometry">
            <mxRectangle width="100" height="40" as="alternateBounds" />
          </mxGeometry>
        </mxCell>
        <mxCell id="ZtE4hQ4jBU0YgBMU4XLE-118" style="shape=partialRectangle;html=1;whiteSpace=wrap;connectable=0;strokeColor=inherit;overflow=hidden;fillColor=none;top=0;left=0;bottom=0;right=0;pointerEvents=1;" vertex="1" visible="0" parent="ZtE4hQ4jBU0YgBMU4XLE-115">
          <mxGeometry x="160" width="100" height="40" as="geometry">
            <mxRectangle width="100" height="40" as="alternateBounds" />
          </mxGeometry>
        </mxCell>
        <mxCell id="ZtE4hQ4jBU0YgBMU4XLE-119" style="shape=partialRectangle;html=1;whiteSpace=wrap;connectable=0;strokeColor=inherit;overflow=hidden;fillColor=none;top=0;left=0;bottom=0;right=0;pointerEvents=1;" vertex="1" visible="0" parent="ZtE4hQ4jBU0YgBMU4XLE-115">
          <mxGeometry x="260" width="30" height="40" as="geometry">
            <mxRectangle width="30" height="40" as="alternateBounds" />
          </mxGeometry>
        </mxCell>
        <mxCell id="ZtE4hQ4jBU0YgBMU4XLE-120" style="shape=partialRectangle;html=1;whiteSpace=wrap;connectable=0;strokeColor=inherit;overflow=hidden;fillColor=none;top=0;left=0;bottom=0;right=0;pointerEvents=1;" vertex="1" visible="0" parent="ZtE4hQ4jBU0YgBMU4XLE-115">
          <mxGeometry x="290" width="80" height="40" as="geometry">
            <mxRectangle width="80" height="40" as="alternateBounds" />
          </mxGeometry>
        </mxCell>
        <mxCell id="ZtE4hQ4jBU0YgBMU4XLE-121" style="shape=partialRectangle;html=1;whiteSpace=wrap;connectable=0;strokeColor=inherit;overflow=hidden;fillColor=none;top=0;left=0;bottom=0;right=0;pointerEvents=1;" vertex="1" visible="0" parent="ZtE4hQ4jBU0YgBMU4XLE-115">
          <mxGeometry x="370" width="100" height="40" as="geometry">
            <mxRectangle width="100" height="40" as="alternateBounds" />
          </mxGeometry>
        </mxCell>
        <mxCell id="ZtE4hQ4jBU0YgBMU4XLE-122" style="shape=partialRectangle;html=1;whiteSpace=wrap;connectable=0;strokeColor=inherit;overflow=hidden;fillColor=none;top=0;left=0;bottom=0;right=0;pointerEvents=1;" vertex="1" visible="0" parent="ZtE4hQ4jBU0YgBMU4XLE-115">
          <mxGeometry x="470" width="110" height="40" as="geometry">
            <mxRectangle width="110" height="40" as="alternateBounds" />
          </mxGeometry>
        </mxCell>
        <mxCell id="ZtE4hQ4jBU0YgBMU4XLE-107" style="shape=tableRow;horizontal=0;startSize=0;swimlaneHead=0;swimlaneBody=0;strokeColor=inherit;top=0;left=0;bottom=0;right=0;collapsible=0;dropTarget=0;fillColor=none;points=[[0,0.5],[1,0.5]];portConstraint=eastwest;" vertex="1" parent="ZtE4hQ4jBU0YgBMU4XLE-1">
          <mxGeometry y="400" width="580" height="40" as="geometry" />
        </mxCell>
        <mxCell id="ZtE4hQ4jBU0YgBMU4XLE-108" value="Dev" style="shape=partialRectangle;html=1;whiteSpace=wrap;connectable=0;strokeColor=inherit;overflow=hidden;fillColor=none;top=0;left=0;bottom=0;right=0;pointerEvents=1;" vertex="1" parent="ZtE4hQ4jBU0YgBMU4XLE-107">
          <mxGeometry width="60" height="40" as="geometry">
            <mxRectangle width="60" height="40" as="alternateBounds" />
          </mxGeometry>
        </mxCell>
        <mxCell id="ZtE4hQ4jBU0YgBMU4XLE-109" value="192.168.1.0/25" style="shape=partialRectangle;html=1;whiteSpace=wrap;connectable=0;strokeColor=inherit;overflow=hidden;fillColor=none;top=0;left=0;bottom=0;right=0;pointerEvents=1;" vertex="1" parent="ZtE4hQ4jBU0YgBMU4XLE-107">
          <mxGeometry x="60" width="100" height="40" as="geometry">
            <mxRectangle width="100" height="40" as="alternateBounds" />
          </mxGeometry>
        </mxCell>
        <mxCell id="ZtE4hQ4jBU0YgBMU4XLE-110" value="255.255.255.128" style="shape=partialRectangle;html=1;whiteSpace=wrap;connectable=0;strokeColor=inherit;overflow=hidden;fillColor=none;top=0;left=0;bottom=0;right=0;pointerEvents=1;" vertex="1" parent="ZtE4hQ4jBU0YgBMU4XLE-107">
          <mxGeometry x="160" width="100" height="40" as="geometry">
            <mxRectangle width="100" height="40" as="alternateBounds" />
          </mxGeometry>
        </mxCell>
        <mxCell id="ZtE4hQ4jBU0YgBMU4XLE-111" value="126" style="shape=partialRectangle;html=1;whiteSpace=wrap;connectable=0;strokeColor=inherit;overflow=hidden;fillColor=none;top=0;left=0;bottom=0;right=0;pointerEvents=1;" vertex="1" parent="ZtE4hQ4jBU0YgBMU4XLE-107">
          <mxGeometry x="260" width="30" height="40" as="geometry">
            <mxRectangle width="30" height="40" as="alternateBounds" />
          </mxGeometry>
        </mxCell>
        <mxCell id="ZtE4hQ4jBU0YgBMU4XLE-112" value="192.168.0.1" style="shape=partialRectangle;html=1;whiteSpace=wrap;connectable=0;strokeColor=inherit;overflow=hidden;fillColor=none;top=0;left=0;bottom=0;right=0;pointerEvents=1;" vertex="1" parent="ZtE4hQ4jBU0YgBMU4XLE-107">
          <mxGeometry x="290" width="80" height="40" as="geometry">
            <mxRectangle width="80" height="40" as="alternateBounds" />
          </mxGeometry>
        </mxCell>
        <mxCell id="ZtE4hQ4jBU0YgBMU4XLE-113" value="192.168.0.126" style="shape=partialRectangle;html=1;whiteSpace=wrap;connectable=0;strokeColor=inherit;overflow=hidden;fillColor=none;top=0;left=0;bottom=0;right=0;pointerEvents=1;" vertex="1" parent="ZtE4hQ4jBU0YgBMU4XLE-107">
          <mxGeometry x="370" width="100" height="40" as="geometry">
            <mxRectangle width="100" height="40" as="alternateBounds" />
          </mxGeometry>
        </mxCell>
        <mxCell id="ZtE4hQ4jBU0YgBMU4XLE-114" value="192.168.0.127" style="shape=partialRectangle;html=1;whiteSpace=wrap;connectable=0;strokeColor=inherit;overflow=hidden;fillColor=none;top=0;left=0;bottom=0;right=0;pointerEvents=1;" vertex="1" parent="ZtE4hQ4jBU0YgBMU4XLE-107">
          <mxGeometry x="470" width="110" height="40" as="geometry">
            <mxRectangle width="110" height="40" as="alternateBounds" />
          </mxGeometry>
        </mxCell>
        <mxCell id="ZtE4hQ4jBU0YgBMU4XLE-131" style="shape=tableRow;horizontal=0;startSize=0;swimlaneHead=0;swimlaneBody=0;strokeColor=inherit;top=0;left=0;bottom=0;right=0;collapsible=0;dropTarget=0;fillColor=none;points=[[0,0.5],[1,0.5]];portConstraint=eastwest;" vertex="1" parent="ZtE4hQ4jBU0YgBMU4XLE-1">
          <mxGeometry y="440" width="580" height="40" as="geometry" />
        </mxCell>
        <mxCell id="ZtE4hQ4jBU0YgBMU4XLE-132" value="Test servers" style="shape=partialRectangle;html=1;whiteSpace=wrap;connectable=0;strokeColor=inherit;overflow=hidden;fillColor=none;top=0;left=0;bottom=0;right=0;pointerEvents=1;" vertex="1" parent="ZtE4hQ4jBU0YgBMU4XLE-131">
          <mxGeometry width="60" height="40" as="geometry">
            <mxRectangle width="60" height="40" as="alternateBounds" />
          </mxGeometry>
        </mxCell>
        <mxCell id="ZtE4hQ4jBU0YgBMU4XLE-133" value="192.168.1.128/26" style="shape=partialRectangle;html=1;whiteSpace=wrap;connectable=0;strokeColor=inherit;overflow=hidden;fillColor=none;top=0;left=0;bottom=0;right=0;pointerEvents=1;" vertex="1" parent="ZtE4hQ4jBU0YgBMU4XLE-131">
          <mxGeometry x="60" width="100" height="40" as="geometry">
            <mxRectangle width="100" height="40" as="alternateBounds" />
          </mxGeometry>
        </mxCell>
        <mxCell id="ZtE4hQ4jBU0YgBMU4XLE-134" value="255.255.255.192" style="shape=partialRectangle;html=1;whiteSpace=wrap;connectable=0;strokeColor=inherit;overflow=hidden;fillColor=none;top=0;left=0;bottom=0;right=0;pointerEvents=1;" vertex="1" parent="ZtE4hQ4jBU0YgBMU4XLE-131">
          <mxGeometry x="160" width="100" height="40" as="geometry">
            <mxRectangle width="100" height="40" as="alternateBounds" />
          </mxGeometry>
        </mxCell>
        <mxCell id="ZtE4hQ4jBU0YgBMU4XLE-135" value="63" style="shape=partialRectangle;html=1;whiteSpace=wrap;connectable=0;strokeColor=inherit;overflow=hidden;fillColor=none;top=0;left=0;bottom=0;right=0;pointerEvents=1;" vertex="1" parent="ZtE4hQ4jBU0YgBMU4XLE-131">
          <mxGeometry x="260" width="30" height="40" as="geometry">
            <mxRectangle width="30" height="40" as="alternateBounds" />
          </mxGeometry>
        </mxCell>
        <mxCell id="ZtE4hQ4jBU0YgBMU4XLE-136" value="192.168.0.129" style="shape=partialRectangle;html=1;whiteSpace=wrap;connectable=0;strokeColor=inherit;overflow=hidden;fillColor=none;top=0;left=0;bottom=0;right=0;pointerEvents=1;" vertex="1" parent="ZtE4hQ4jBU0YgBMU4XLE-131">
          <mxGeometry x="290" width="80" height="40" as="geometry">
            <mxRectangle width="80" height="40" as="alternateBounds" />
          </mxGeometry>
        </mxCell>
        <mxCell id="ZtE4hQ4jBU0YgBMU4XLE-137" value="192.168.0.190" style="shape=partialRectangle;html=1;whiteSpace=wrap;connectable=0;strokeColor=inherit;overflow=hidden;fillColor=none;top=0;left=0;bottom=0;right=0;pointerEvents=1;" vertex="1" parent="ZtE4hQ4jBU0YgBMU4XLE-131">
          <mxGeometry x="370" width="100" height="40" as="geometry">
            <mxRectangle width="100" height="40" as="alternateBounds" />
          </mxGeometry>
        </mxCell>
        <mxCell id="ZtE4hQ4jBU0YgBMU4XLE-138" value="192.168.0.191" style="shape=partialRectangle;html=1;whiteSpace=wrap;connectable=0;strokeColor=inherit;overflow=hidden;fillColor=none;top=0;left=0;bottom=0;right=0;pointerEvents=1;" vertex="1" parent="ZtE4hQ4jBU0YgBMU4XLE-131">
          <mxGeometry x="470" width="110" height="40" as="geometry">
            <mxRectangle width="110" height="40" as="alternateBounds" />
          </mxGeometry>
        </mxCell>
        <mxCell id="ZtE4hQ4jBU0YgBMU4XLE-123" style="shape=tableRow;horizontal=0;startSize=0;swimlaneHead=0;swimlaneBody=0;strokeColor=inherit;top=0;left=0;bottom=0;right=0;collapsible=0;dropTarget=0;fillColor=none;points=[[0,0.5],[1,0.5]];portConstraint=eastwest;" vertex="1" parent="ZtE4hQ4jBU0YgBMU4XLE-1">
          <mxGeometry y="480" width="580" height="40" as="geometry" />
        </mxCell>
        <mxCell id="ZtE4hQ4jBU0YgBMU4XLE-124" value="Office hardware" style="shape=partialRectangle;html=1;whiteSpace=wrap;connectable=0;strokeColor=inherit;overflow=hidden;fillColor=none;top=0;left=0;bottom=0;right=0;pointerEvents=1;" vertex="1" parent="ZtE4hQ4jBU0YgBMU4XLE-123">
          <mxGeometry width="60" height="40" as="geometry">
            <mxRectangle width="60" height="40" as="alternateBounds" />
          </mxGeometry>
        </mxCell>
        <mxCell id="ZtE4hQ4jBU0YgBMU4XLE-125" value="192.168.1.192/26" style="shape=partialRectangle;html=1;whiteSpace=wrap;connectable=0;strokeColor=inherit;overflow=hidden;fillColor=none;top=0;left=0;bottom=0;right=0;pointerEvents=1;" vertex="1" parent="ZtE4hQ4jBU0YgBMU4XLE-123">
          <mxGeometry x="60" width="100" height="40" as="geometry">
            <mxRectangle width="100" height="40" as="alternateBounds" />
          </mxGeometry>
        </mxCell>
        <mxCell id="ZtE4hQ4jBU0YgBMU4XLE-126" value="255.255.255.192" style="shape=partialRectangle;html=1;whiteSpace=wrap;connectable=0;strokeColor=inherit;overflow=hidden;fillColor=none;top=0;left=0;bottom=0;right=0;pointerEvents=1;" vertex="1" parent="ZtE4hQ4jBU0YgBMU4XLE-123">
          <mxGeometry x="160" width="100" height="40" as="geometry">
            <mxRectangle width="100" height="40" as="alternateBounds" />
          </mxGeometry>
        </mxCell>
        <mxCell id="ZtE4hQ4jBU0YgBMU4XLE-127" value="63" style="shape=partialRectangle;html=1;whiteSpace=wrap;connectable=0;strokeColor=inherit;overflow=hidden;fillColor=none;top=0;left=0;bottom=0;right=0;pointerEvents=1;" vertex="1" parent="ZtE4hQ4jBU0YgBMU4XLE-123">
          <mxGeometry x="260" width="30" height="40" as="geometry">
            <mxRectangle width="30" height="40" as="alternateBounds" />
          </mxGeometry>
        </mxCell>
        <mxCell id="ZtE4hQ4jBU0YgBMU4XLE-128" value="192.168.0.193" style="shape=partialRectangle;html=1;whiteSpace=wrap;connectable=0;strokeColor=inherit;overflow=hidden;fillColor=none;top=0;left=0;bottom=0;right=0;pointerEvents=1;" vertex="1" parent="ZtE4hQ4jBU0YgBMU4XLE-123">
          <mxGeometry x="290" width="80" height="40" as="geometry">
            <mxRectangle width="80" height="40" as="alternateBounds" />
          </mxGeometry>
        </mxCell>
        <mxCell id="ZtE4hQ4jBU0YgBMU4XLE-129" value="192.168.0.254" style="shape=partialRectangle;html=1;whiteSpace=wrap;connectable=0;strokeColor=inherit;overflow=hidden;fillColor=none;top=0;left=0;bottom=0;right=0;pointerEvents=1;" vertex="1" parent="ZtE4hQ4jBU0YgBMU4XLE-123">
          <mxGeometry x="370" width="100" height="40" as="geometry">
            <mxRectangle width="100" height="40" as="alternateBounds" />
          </mxGeometry>
        </mxCell>
        <mxCell id="ZtE4hQ4jBU0YgBMU4XLE-130" value="192.168.0.255" style="shape=partialRectangle;html=1;whiteSpace=wrap;connectable=0;strokeColor=inherit;overflow=hidden;fillColor=none;top=0;left=0;bottom=0;right=0;pointerEvents=1;" vertex="1" parent="ZtE4hQ4jBU0YgBMU4XLE-123">
          <mxGeometry x="470" width="110" height="40" as="geometry">
            <mxRectangle width="110" height="40" as="alternateBounds" />
          </mxGeometry>
        </mxCell>
        <mxCell id="ZtE4hQ4jBU0YgBMU4XLE-139" style="shape=tableRow;horizontal=0;startSize=0;swimlaneHead=0;swimlaneBody=0;strokeColor=inherit;top=0;left=0;bottom=0;right=0;collapsible=0;dropTarget=0;fillColor=none;points=[[0,0.5],[1,0.5]];portConstraint=eastwest;" vertex="1" parent="ZtE4hQ4jBU0YgBMU4XLE-1">
          <mxGeometry y="520" width="580" height="40" as="geometry" />
        </mxCell>
        <mxCell id="ZtE4hQ4jBU0YgBMU4XLE-140" value="InetRouter - Central Router network" style="shape=partialRectangle;html=1;whiteSpace=wrap;connectable=0;strokeColor=inherit;overflow=hidden;fillColor=none;top=0;left=0;bottom=0;right=0;pointerEvents=1;rowspan=1;colspan=7;" vertex="1" parent="ZtE4hQ4jBU0YgBMU4XLE-139">
          <mxGeometry width="580" height="40" as="geometry">
            <mxRectangle width="60" height="40" as="alternateBounds" />
          </mxGeometry>
        </mxCell>
        <mxCell id="ZtE4hQ4jBU0YgBMU4XLE-141" style="shape=partialRectangle;html=1;whiteSpace=wrap;connectable=0;strokeColor=inherit;overflow=hidden;fillColor=none;top=0;left=0;bottom=0;right=0;pointerEvents=1;" vertex="1" visible="0" parent="ZtE4hQ4jBU0YgBMU4XLE-139">
          <mxGeometry x="60" width="100" height="40" as="geometry">
            <mxRectangle width="100" height="40" as="alternateBounds" />
          </mxGeometry>
        </mxCell>
        <mxCell id="ZtE4hQ4jBU0YgBMU4XLE-142" style="shape=partialRectangle;html=1;whiteSpace=wrap;connectable=0;strokeColor=inherit;overflow=hidden;fillColor=none;top=0;left=0;bottom=0;right=0;pointerEvents=1;" vertex="1" visible="0" parent="ZtE4hQ4jBU0YgBMU4XLE-139">
          <mxGeometry x="160" width="100" height="40" as="geometry">
            <mxRectangle width="100" height="40" as="alternateBounds" />
          </mxGeometry>
        </mxCell>
        <mxCell id="ZtE4hQ4jBU0YgBMU4XLE-143" style="shape=partialRectangle;html=1;whiteSpace=wrap;connectable=0;strokeColor=inherit;overflow=hidden;fillColor=none;top=0;left=0;bottom=0;right=0;pointerEvents=1;" vertex="1" visible="0" parent="ZtE4hQ4jBU0YgBMU4XLE-139">
          <mxGeometry x="260" width="30" height="40" as="geometry">
            <mxRectangle width="30" height="40" as="alternateBounds" />
          </mxGeometry>
        </mxCell>
        <mxCell id="ZtE4hQ4jBU0YgBMU4XLE-144" style="shape=partialRectangle;html=1;whiteSpace=wrap;connectable=0;strokeColor=inherit;overflow=hidden;fillColor=none;top=0;left=0;bottom=0;right=0;pointerEvents=1;" vertex="1" visible="0" parent="ZtE4hQ4jBU0YgBMU4XLE-139">
          <mxGeometry x="290" width="80" height="40" as="geometry">
            <mxRectangle width="80" height="40" as="alternateBounds" />
          </mxGeometry>
        </mxCell>
        <mxCell id="ZtE4hQ4jBU0YgBMU4XLE-145" style="shape=partialRectangle;html=1;whiteSpace=wrap;connectable=0;strokeColor=inherit;overflow=hidden;fillColor=none;top=0;left=0;bottom=0;right=0;pointerEvents=1;" vertex="1" visible="0" parent="ZtE4hQ4jBU0YgBMU4XLE-139">
          <mxGeometry x="370" width="100" height="40" as="geometry">
            <mxRectangle width="100" height="40" as="alternateBounds" />
          </mxGeometry>
        </mxCell>
        <mxCell id="ZtE4hQ4jBU0YgBMU4XLE-146" style="shape=partialRectangle;html=1;whiteSpace=wrap;connectable=0;strokeColor=inherit;overflow=hidden;fillColor=none;top=0;left=0;bottom=0;right=0;pointerEvents=1;" vertex="1" visible="0" parent="ZtE4hQ4jBU0YgBMU4XLE-139">
          <mxGeometry x="470" width="110" height="40" as="geometry">
            <mxRectangle width="110" height="40" as="alternateBounds" />
          </mxGeometry>
        </mxCell>
        <mxCell id="ZtE4hQ4jBU0YgBMU4XLE-147" style="shape=tableRow;horizontal=0;startSize=0;swimlaneHead=0;swimlaneBody=0;strokeColor=inherit;top=0;left=0;bottom=0;right=0;collapsible=0;dropTarget=0;fillColor=none;points=[[0,0.5],[1,0.5]];portConstraint=eastwest;" vertex="1" parent="ZtE4hQ4jBU0YgBMU4XLE-1">
          <mxGeometry y="560" width="580" height="40" as="geometry" />
        </mxCell>
        <mxCell id="ZtE4hQ4jBU0YgBMU4XLE-148" value="Inet-Central" style="shape=partialRectangle;html=1;whiteSpace=wrap;connectable=0;strokeColor=inherit;overflow=hidden;fillColor=none;top=0;left=0;bottom=0;right=0;pointerEvents=1;" vertex="1" parent="ZtE4hQ4jBU0YgBMU4XLE-147">
          <mxGeometry width="60" height="40" as="geometry">
            <mxRectangle width="60" height="40" as="alternateBounds" />
          </mxGeometry>
        </mxCell>
        <mxCell id="ZtE4hQ4jBU0YgBMU4XLE-149" value="192.168.255.0/30" style="shape=partialRectangle;html=1;whiteSpace=wrap;connectable=0;strokeColor=inherit;overflow=hidden;fillColor=none;top=0;left=0;bottom=0;right=0;pointerEvents=1;" vertex="1" parent="ZtE4hQ4jBU0YgBMU4XLE-147">
          <mxGeometry x="60" width="100" height="40" as="geometry">
            <mxRectangle width="100" height="40" as="alternateBounds" />
          </mxGeometry>
        </mxCell>
        <mxCell id="ZtE4hQ4jBU0YgBMU4XLE-150" value="255.255.255.252" style="shape=partialRectangle;html=1;whiteSpace=wrap;connectable=0;strokeColor=inherit;overflow=hidden;fillColor=none;top=0;left=0;bottom=0;right=0;pointerEvents=1;" vertex="1" parent="ZtE4hQ4jBU0YgBMU4XLE-147">
          <mxGeometry x="160" width="100" height="40" as="geometry">
            <mxRectangle width="100" height="40" as="alternateBounds" />
          </mxGeometry>
        </mxCell>
        <mxCell id="ZtE4hQ4jBU0YgBMU4XLE-151" value="2" style="shape=partialRectangle;html=1;whiteSpace=wrap;connectable=0;strokeColor=inherit;overflow=hidden;fillColor=none;top=0;left=0;bottom=0;right=0;pointerEvents=1;" vertex="1" parent="ZtE4hQ4jBU0YgBMU4XLE-147">
          <mxGeometry x="260" width="30" height="40" as="geometry">
            <mxRectangle width="30" height="40" as="alternateBounds" />
          </mxGeometry>
        </mxCell>
        <mxCell id="ZtE4hQ4jBU0YgBMU4XLE-152" value="192.168.255.1" style="shape=partialRectangle;html=1;whiteSpace=wrap;connectable=0;strokeColor=inherit;overflow=hidden;fillColor=none;top=0;left=0;bottom=0;right=0;pointerEvents=1;" vertex="1" parent="ZtE4hQ4jBU0YgBMU4XLE-147">
          <mxGeometry x="290" width="80" height="40" as="geometry">
            <mxRectangle width="80" height="40" as="alternateBounds" />
          </mxGeometry>
        </mxCell>
        <mxCell id="ZtE4hQ4jBU0YgBMU4XLE-153" value="192.168.255.2" style="shape=partialRectangle;html=1;whiteSpace=wrap;connectable=0;strokeColor=inherit;overflow=hidden;fillColor=none;top=0;left=0;bottom=0;right=0;pointerEvents=1;" vertex="1" parent="ZtE4hQ4jBU0YgBMU4XLE-147">
          <mxGeometry x="370" width="100" height="40" as="geometry">
            <mxRectangle width="100" height="40" as="alternateBounds" />
          </mxGeometry>
        </mxCell>
        <mxCell id="ZtE4hQ4jBU0YgBMU4XLE-154" value="192.168.255.3" style="shape=partialRectangle;html=1;whiteSpace=wrap;connectable=0;strokeColor=inherit;overflow=hidden;fillColor=none;top=0;left=0;bottom=0;right=0;pointerEvents=1;" vertex="1" parent="ZtE4hQ4jBU0YgBMU4XLE-147">
          <mxGeometry x="470" width="110" height="40" as="geometry">
            <mxRectangle width="110" height="40" as="alternateBounds" />
          </mxGeometry>
        </mxCell>
        <mxCell id="ZtE4hQ4jBU0YgBMU4XLE-291" style="shape=tableRow;horizontal=0;startSize=0;swimlaneHead=0;swimlaneBody=0;strokeColor=inherit;top=0;left=0;bottom=0;right=0;collapsible=0;dropTarget=0;fillColor=none;points=[[0,0.5],[1,0.5]];portConstraint=eastwest;" vertex="1" parent="ZtE4hQ4jBU0YgBMU4XLE-1">
          <mxGeometry y="600" width="580" height="40" as="geometry" />
        </mxCell>
        <mxCell id="ZtE4hQ4jBU0YgBMU4XLE-292" value="Central - Office 1" style="shape=partialRectangle;html=1;whiteSpace=wrap;connectable=0;strokeColor=inherit;overflow=hidden;fillColor=none;top=0;left=0;bottom=0;right=0;pointerEvents=1;" vertex="1" parent="ZtE4hQ4jBU0YgBMU4XLE-291">
          <mxGeometry width="60" height="40" as="geometry">
            <mxRectangle width="60" height="40" as="alternateBounds" />
          </mxGeometry>
        </mxCell>
        <mxCell id="ZtE4hQ4jBU0YgBMU4XLE-293" value="192.168.255.4/30" style="shape=partialRectangle;html=1;whiteSpace=wrap;connectable=0;strokeColor=inherit;overflow=hidden;fillColor=none;top=0;left=0;bottom=0;right=0;pointerEvents=1;" vertex="1" parent="ZtE4hQ4jBU0YgBMU4XLE-291">
          <mxGeometry x="60" width="100" height="40" as="geometry">
            <mxRectangle width="100" height="40" as="alternateBounds" />
          </mxGeometry>
        </mxCell>
        <mxCell id="ZtE4hQ4jBU0YgBMU4XLE-294" value="255.255.255.252" style="shape=partialRectangle;html=1;whiteSpace=wrap;connectable=0;strokeColor=inherit;overflow=hidden;fillColor=none;top=0;left=0;bottom=0;right=0;pointerEvents=1;" vertex="1" parent="ZtE4hQ4jBU0YgBMU4XLE-291">
          <mxGeometry x="160" width="100" height="40" as="geometry">
            <mxRectangle width="100" height="40" as="alternateBounds" />
          </mxGeometry>
        </mxCell>
        <mxCell id="ZtE4hQ4jBU0YgBMU4XLE-295" value="2" style="shape=partialRectangle;html=1;whiteSpace=wrap;connectable=0;strokeColor=inherit;overflow=hidden;fillColor=none;top=0;left=0;bottom=0;right=0;pointerEvents=1;" vertex="1" parent="ZtE4hQ4jBU0YgBMU4XLE-291">
          <mxGeometry x="260" width="30" height="40" as="geometry">
            <mxRectangle width="30" height="40" as="alternateBounds" />
          </mxGeometry>
        </mxCell>
        <mxCell id="ZtE4hQ4jBU0YgBMU4XLE-296" value="192.168.255.5" style="shape=partialRectangle;html=1;whiteSpace=wrap;connectable=0;strokeColor=inherit;overflow=hidden;fillColor=none;top=0;left=0;bottom=0;right=0;pointerEvents=1;" vertex="1" parent="ZtE4hQ4jBU0YgBMU4XLE-291">
          <mxGeometry x="290" width="80" height="40" as="geometry">
            <mxRectangle width="80" height="40" as="alternateBounds" />
          </mxGeometry>
        </mxCell>
        <mxCell id="ZtE4hQ4jBU0YgBMU4XLE-297" value="192.168.255.6" style="shape=partialRectangle;html=1;whiteSpace=wrap;connectable=0;strokeColor=inherit;overflow=hidden;fillColor=none;top=0;left=0;bottom=0;right=0;pointerEvents=1;" vertex="1" parent="ZtE4hQ4jBU0YgBMU4XLE-291">
          <mxGeometry x="370" width="100" height="40" as="geometry">
            <mxRectangle width="100" height="40" as="alternateBounds" />
          </mxGeometry>
        </mxCell>
        <mxCell id="ZtE4hQ4jBU0YgBMU4XLE-298" value="192.168.255.7" style="shape=partialRectangle;html=1;whiteSpace=wrap;connectable=0;strokeColor=inherit;overflow=hidden;fillColor=none;top=0;left=0;bottom=0;right=0;pointerEvents=1;" vertex="1" parent="ZtE4hQ4jBU0YgBMU4XLE-291">
          <mxGeometry x="470" width="110" height="40" as="geometry">
            <mxRectangle width="110" height="40" as="alternateBounds" />
          </mxGeometry>
        </mxCell>
        <mxCell id="ZtE4hQ4jBU0YgBMU4XLE-299" style="shape=tableRow;horizontal=0;startSize=0;swimlaneHead=0;swimlaneBody=0;strokeColor=inherit;top=0;left=0;bottom=0;right=0;collapsible=0;dropTarget=0;fillColor=none;points=[[0,0.5],[1,0.5]];portConstraint=eastwest;" vertex="1" parent="ZtE4hQ4jBU0YgBMU4XLE-1">
          <mxGeometry y="640" width="580" height="40" as="geometry" />
        </mxCell>
        <mxCell id="ZtE4hQ4jBU0YgBMU4XLE-300" value="Central - Office 2" style="shape=partialRectangle;html=1;whiteSpace=wrap;connectable=0;strokeColor=inherit;overflow=hidden;fillColor=none;top=0;left=0;bottom=0;right=0;pointerEvents=1;" vertex="1" parent="ZtE4hQ4jBU0YgBMU4XLE-299">
          <mxGeometry width="60" height="40" as="geometry">
            <mxRectangle width="60" height="40" as="alternateBounds" />
          </mxGeometry>
        </mxCell>
        <mxCell id="ZtE4hQ4jBU0YgBMU4XLE-301" value="192.168.255.8" style="shape=partialRectangle;html=1;whiteSpace=wrap;connectable=0;strokeColor=inherit;overflow=hidden;fillColor=none;top=0;left=0;bottom=0;right=0;pointerEvents=1;" vertex="1" parent="ZtE4hQ4jBU0YgBMU4XLE-299">
          <mxGeometry x="60" width="100" height="40" as="geometry">
            <mxRectangle width="100" height="40" as="alternateBounds" />
          </mxGeometry>
        </mxCell>
        <mxCell id="ZtE4hQ4jBU0YgBMU4XLE-302" value="255.255.255.252" style="shape=partialRectangle;html=1;whiteSpace=wrap;connectable=0;strokeColor=inherit;overflow=hidden;fillColor=none;top=0;left=0;bottom=0;right=0;pointerEvents=1;" vertex="1" parent="ZtE4hQ4jBU0YgBMU4XLE-299">
          <mxGeometry x="160" width="100" height="40" as="geometry">
            <mxRectangle width="100" height="40" as="alternateBounds" />
          </mxGeometry>
        </mxCell>
        <mxCell id="ZtE4hQ4jBU0YgBMU4XLE-303" value="2" style="shape=partialRectangle;html=1;whiteSpace=wrap;connectable=0;strokeColor=inherit;overflow=hidden;fillColor=none;top=0;left=0;bottom=0;right=0;pointerEvents=1;" vertex="1" parent="ZtE4hQ4jBU0YgBMU4XLE-299">
          <mxGeometry x="260" width="30" height="40" as="geometry">
            <mxRectangle width="30" height="40" as="alternateBounds" />
          </mxGeometry>
        </mxCell>
        <mxCell id="ZtE4hQ4jBU0YgBMU4XLE-304" value="192.168.255.9" style="shape=partialRectangle;html=1;whiteSpace=wrap;connectable=0;strokeColor=inherit;overflow=hidden;fillColor=none;top=0;left=0;bottom=0;right=0;pointerEvents=1;" vertex="1" parent="ZtE4hQ4jBU0YgBMU4XLE-299">
          <mxGeometry x="290" width="80" height="40" as="geometry">
            <mxRectangle width="80" height="40" as="alternateBounds" />
          </mxGeometry>
        </mxCell>
        <mxCell id="ZtE4hQ4jBU0YgBMU4XLE-305" value="192.168.255.10" style="shape=partialRectangle;html=1;whiteSpace=wrap;connectable=0;strokeColor=inherit;overflow=hidden;fillColor=none;top=0;left=0;bottom=0;right=0;pointerEvents=1;" vertex="1" parent="ZtE4hQ4jBU0YgBMU4XLE-299">
          <mxGeometry x="370" width="100" height="40" as="geometry">
            <mxRectangle width="100" height="40" as="alternateBounds" />
          </mxGeometry>
        </mxCell>
        <mxCell id="ZtE4hQ4jBU0YgBMU4XLE-306" value="192.168.255.11" style="shape=partialRectangle;html=1;whiteSpace=wrap;connectable=0;strokeColor=inherit;overflow=hidden;fillColor=none;top=0;left=0;bottom=0;right=0;pointerEvents=1;" vertex="1" parent="ZtE4hQ4jBU0YgBMU4XLE-299">
          <mxGeometry x="470" width="110" height="40" as="geometry">
            <mxRectangle width="110" height="40" as="alternateBounds" />
          </mxGeometry>
        </mxCell>
        <mxCell id="ZtE4hQ4jBU0YgBMU4XLE-159" style="edgeStyle=none;curved=1;rounded=0;orthogonalLoop=1;jettySize=auto;html=1;fontSize=12;startSize=8;endSize=8;endArrow=none;endFill=0;" edge="1" parent="1" source="ZtE4hQ4jBU0YgBMU4XLE-155" target="ZtE4hQ4jBU0YgBMU4XLE-157">
          <mxGeometry relative="1" as="geometry" />
        </mxCell>
        <mxCell id="ZtE4hQ4jBU0YgBMU4XLE-155" value="" style="shape=mxgraph.cisco.routers.atm_router;sketch=0;html=1;pointerEvents=1;dashed=0;fillColor=#036897;strokeColor=#ffffff;strokeWidth=2;verticalLabelPosition=bottom;verticalAlign=top;align=center;outlineConnect=0;" vertex="1" parent="1">
          <mxGeometry x="431" y="130" width="78" height="53" as="geometry" />
        </mxCell>
        <mxCell id="ZtE4hQ4jBU0YgBMU4XLE-156" value="&lt;b&gt;&lt;font style=&quot;font-size: 16px;&quot;&gt;Internet&lt;/font&gt;&lt;/b&gt;" style="ellipse;shape=cloud;whiteSpace=wrap;html=1;fillColor=#1ba1e2;strokeColor=#006EAF;fontColor=#ffffff;" vertex="1" parent="1">
          <mxGeometry x="410" y="10" width="120" height="80" as="geometry" />
        </mxCell>
        <mxCell id="ZtE4hQ4jBU0YgBMU4XLE-169" style="edgeStyle=none;curved=1;rounded=0;orthogonalLoop=1;jettySize=auto;html=1;exitX=0.88;exitY=0.9;exitDx=0;exitDy=0;exitPerimeter=0;fontSize=12;startSize=8;endSize=8;endArrow=none;endFill=0;" edge="1" parent="1" source="ZtE4hQ4jBU0YgBMU4XLE-157">
          <mxGeometry relative="1" as="geometry">
            <mxPoint x="790.1673604848465" y="417.7218788049904" as="targetPoint" />
          </mxGeometry>
        </mxCell>
        <mxCell id="ZtE4hQ4jBU0YgBMU4XLE-170" style="edgeStyle=none;curved=1;rounded=0;orthogonalLoop=1;jettySize=auto;html=1;exitX=0.5;exitY=1;exitDx=0;exitDy=0;exitPerimeter=0;fontSize=12;startSize=8;endSize=8;endArrow=none;endFill=0;" edge="1" parent="1" source="ZtE4hQ4jBU0YgBMU4XLE-157">
          <mxGeometry relative="1" as="geometry">
            <mxPoint x="470" y="430" as="targetPoint" />
          </mxGeometry>
        </mxCell>
        <mxCell id="ZtE4hQ4jBU0YgBMU4XLE-157" value="" style="shape=mxgraph.cisco.routers.atm_router;sketch=0;html=1;pointerEvents=1;dashed=0;fillColor=#036897;strokeColor=#ffffff;strokeWidth=2;verticalLabelPosition=bottom;verticalAlign=top;align=center;outlineConnect=0;" vertex="1" parent="1">
          <mxGeometry x="431" y="240" width="78" height="53" as="geometry" />
        </mxCell>
        <mxCell id="ZtE4hQ4jBU0YgBMU4XLE-158" style="edgeStyle=none;curved=1;rounded=0;orthogonalLoop=1;jettySize=auto;html=1;entryX=0.5;entryY=0;entryDx=0;entryDy=0;entryPerimeter=0;fontSize=12;endArrow=none;endFill=0;" edge="1" parent="1" source="ZtE4hQ4jBU0YgBMU4XLE-156" target="ZtE4hQ4jBU0YgBMU4XLE-155">
          <mxGeometry relative="1" as="geometry" />
        </mxCell>
        <mxCell id="ZtE4hQ4jBU0YgBMU4XLE-160" value="&lt;b&gt;InetRouter&lt;/b&gt;" style="text;strokeColor=none;fillColor=none;html=1;align=center;verticalAlign=middle;whiteSpace=wrap;rounded=0;fontSize=16;" vertex="1" parent="1">
          <mxGeometry x="490" y="100" width="90" height="30" as="geometry" />
        </mxCell>
        <mxCell id="ZtE4hQ4jBU0YgBMU4XLE-161" value="&lt;b&gt;CentralRouter&lt;/b&gt;" style="text;strokeColor=none;fillColor=none;html=1;align=center;verticalAlign=middle;whiteSpace=wrap;rounded=0;fontSize=16;" vertex="1" parent="1">
          <mxGeometry x="490" y="220" width="120" height="30" as="geometry" />
        </mxCell>
        <mxCell id="ZtE4hQ4jBU0YgBMU4XLE-163" value="&lt;b&gt;&lt;font color=&quot;#ff0a74&quot;&gt;NAT&lt;/font&gt;&lt;/b&gt;" style="text;strokeColor=none;fillColor=none;html=1;align=center;verticalAlign=middle;whiteSpace=wrap;rounded=0;fontSize=16;" vertex="1" parent="1">
          <mxGeometry x="509" y="120" width="60" height="30" as="geometry" />
        </mxCell>
        <mxCell id="ZtE4hQ4jBU0YgBMU4XLE-167" value="" style="shape=mxgraph.cisco.servers.fileserver;sketch=0;html=1;pointerEvents=1;dashed=0;fillColor=#036897;strokeColor=#ffffff;strokeWidth=2;verticalLabelPosition=bottom;verticalAlign=top;align=center;outlineConnect=0;" vertex="1" parent="1">
          <mxGeometry x="128.5" y="473" width="43" height="62" as="geometry" />
        </mxCell>
        <mxCell id="ZtE4hQ4jBU0YgBMU4XLE-171" value="192.168.255.1/30" style="text;strokeColor=none;fillColor=none;html=1;align=center;verticalAlign=middle;whiteSpace=wrap;rounded=0;fontSize=16;" vertex="1" parent="1">
          <mxGeometry x="310" y="170" width="130" height="30" as="geometry" />
        </mxCell>
        <mxCell id="ZtE4hQ4jBU0YgBMU4XLE-172" value="192.168.255.2/30" style="text;strokeColor=none;fillColor=none;html=1;align=center;verticalAlign=middle;whiteSpace=wrap;rounded=0;fontSize=16;" vertex="1" parent="1">
          <mxGeometry x="310" y="220" width="130" height="30" as="geometry" />
        </mxCell>
        <mxCell id="ZtE4hQ4jBU0YgBMU4XLE-173" value="&lt;div&gt;&lt;b&gt;Central Network&lt;/b&gt;&lt;/div&gt;&lt;b&gt;192.168.0.0&lt;/b&gt;" style="text;strokeColor=none;fillColor=none;html=1;align=center;verticalAlign=middle;whiteSpace=wrap;rounded=0;fontSize=16;rotation=0;" vertex="1" parent="1">
          <mxGeometry x="55" y="260" width="130" height="30" as="geometry" />
        </mxCell>
        <mxCell id="ZtE4hQ4jBU0YgBMU4XLE-174" value="&lt;font style=&quot;font-size: 12px;&quot;&gt;192.168.0.65/26&lt;/font&gt;" style="text;strokeColor=none;fillColor=none;html=1;align=center;verticalAlign=middle;whiteSpace=wrap;rounded=0;fontSize=16;rotation=20;" vertex="1" parent="1">
          <mxGeometry x="497" y="275" width="130" height="30" as="geometry" />
        </mxCell>
        <mxCell id="ZtE4hQ4jBU0YgBMU4XLE-175" value="&lt;font style=&quot;font-size: 12px;&quot;&gt;192.168.0.33/28&lt;/font&gt;" style="text;strokeColor=none;fillColor=none;html=1;align=center;verticalAlign=middle;whiteSpace=wrap;rounded=0;fontSize=16;rotation=-90;" vertex="1" parent="1">
          <mxGeometry x="410" y="335" width="130" height="30" as="geometry" />
        </mxCell>
        <mxCell id="ZtE4hQ4jBU0YgBMU4XLE-176" style="edgeStyle=none;curved=1;rounded=0;orthogonalLoop=1;jettySize=auto;html=1;entryX=0.5;entryY=0;entryDx=0;entryDy=0;entryPerimeter=0;fontSize=12;startSize=8;endSize=8;endArrow=none;endFill=0;" edge="1" parent="1" target="ZtE4hQ4jBU0YgBMU4XLE-167">
          <mxGeometry relative="1" as="geometry">
            <mxPoint x="150" y="480" as="sourcePoint" />
          </mxGeometry>
        </mxCell>
        <mxCell id="ZtE4hQ4jBU0YgBMU4XLE-180" value="&lt;b&gt;&lt;font style=&quot;font-size: 12px;&quot;&gt;CentralServer&lt;/font&gt;&lt;/b&gt;&lt;div&gt;&lt;span style=&quot;font-size: 12px;&quot;&gt;&lt;b&gt;192.168.0.2/28&lt;/b&gt;&lt;/span&gt;&lt;b&gt;&lt;font style=&quot;font-size: 12px;&quot;&gt;&lt;br&gt;&lt;/font&gt;&lt;/b&gt;&lt;/div&gt;" style="text;strokeColor=none;fillColor=none;html=1;align=center;verticalAlign=middle;whiteSpace=wrap;rounded=0;fontSize=16;" vertex="1" parent="1">
          <mxGeometry x="42.999999999999986" y="425.3" width="120" height="30" as="geometry" />
        </mxCell>
        <mxCell id="ZtE4hQ4jBU0YgBMU4XLE-186" style="edgeStyle=none;curved=1;rounded=0;orthogonalLoop=1;jettySize=auto;html=1;exitX=0.5;exitY=0;exitDx=0;exitDy=0;exitPerimeter=0;fontSize=12;startSize=8;endSize=8;endArrow=none;endFill=0;" edge="1" parent="1" source="ZtE4hQ4jBU0YgBMU4XLE-183" target="ZtE4hQ4jBU0YgBMU4XLE-157">
          <mxGeometry relative="1" as="geometry" />
        </mxCell>
        <mxCell id="ZtE4hQ4jBU0YgBMU4XLE-183" value="" style="shape=mxgraph.cisco.routers.atm_router;sketch=0;html=1;pointerEvents=1;dashed=0;fillColor=#036897;strokeColor=#ffffff;strokeWidth=2;verticalLabelPosition=bottom;verticalAlign=top;align=center;outlineConnect=0;" vertex="1" parent="1">
          <mxGeometry x="666" y="610" width="78" height="53" as="geometry" />
        </mxCell>
        <mxCell id="ZtE4hQ4jBU0YgBMU4XLE-185" style="edgeStyle=none;curved=1;rounded=0;orthogonalLoop=1;jettySize=auto;html=1;exitX=0.5;exitY=0;exitDx=0;exitDy=0;exitPerimeter=0;fontSize=12;startSize=8;endSize=8;endArrow=none;endFill=0;" edge="1" parent="1" source="ZtE4hQ4jBU0YgBMU4XLE-184" target="ZtE4hQ4jBU0YgBMU4XLE-157">
          <mxGeometry relative="1" as="geometry" />
        </mxCell>
        <mxCell id="ZtE4hQ4jBU0YgBMU4XLE-184" value="" style="shape=mxgraph.cisco.routers.atm_router;sketch=0;html=1;pointerEvents=1;dashed=0;fillColor=#036897;strokeColor=#ffffff;strokeWidth=2;verticalLabelPosition=bottom;verticalAlign=top;align=center;outlineConnect=0;" vertex="1" parent="1">
          <mxGeometry x="241" y="617" width="78" height="53" as="geometry" />
        </mxCell>
        <mxCell id="ZtE4hQ4jBU0YgBMU4XLE-188" value="&lt;b&gt;Office 2 Router&lt;/b&gt;" style="text;strokeColor=none;fillColor=none;html=1;align=center;verticalAlign=middle;whiteSpace=wrap;rounded=0;fontSize=16;" vertex="1" parent="1">
          <mxGeometry x="720" y="585" width="120" height="30" as="geometry" />
        </mxCell>
        <mxCell id="ZtE4hQ4jBU0YgBMU4XLE-189" value="&lt;b&gt;Office 1 Router&lt;/b&gt;" style="text;strokeColor=none;fillColor=none;html=1;align=center;verticalAlign=middle;whiteSpace=wrap;rounded=0;fontSize=16;" vertex="1" parent="1">
          <mxGeometry x="290" y="591.5" width="120" height="30" as="geometry" />
        </mxCell>
        <mxCell id="ZtE4hQ4jBU0YgBMU4XLE-201" style="edgeStyle=none;curved=1;rounded=0;orthogonalLoop=1;jettySize=auto;html=1;exitX=0.5;exitY=1;exitDx=0;exitDy=0;fontSize=12;startSize=8;endSize=8;" edge="1" parent="1" source="ZtE4hQ4jBU0YgBMU4XLE-198" target="ZtE4hQ4jBU0YgBMU4XLE-198">
          <mxGeometry relative="1" as="geometry" />
        </mxCell>
        <mxCell id="ZtE4hQ4jBU0YgBMU4XLE-205" style="edgeStyle=none;curved=1;rounded=0;orthogonalLoop=1;jettySize=auto;html=1;exitX=0;exitY=0.5;exitDx=0;exitDy=0;fontSize=12;startSize=8;endSize=8;" edge="1" parent="1" source="ZtE4hQ4jBU0YgBMU4XLE-198" target="ZtE4hQ4jBU0YgBMU4XLE-198">
          <mxGeometry relative="1" as="geometry" />
        </mxCell>
        <mxCell id="ZtE4hQ4jBU0YgBMU4XLE-207" value="" style="shape=mxgraph.cisco.switches.atm_switch;sketch=0;html=1;pointerEvents=1;dashed=0;fillColor=#036897;strokeColor=#ffffff;strokeWidth=2;verticalLabelPosition=bottom;verticalAlign=top;align=center;outlineConnect=0;" vertex="1" parent="1">
          <mxGeometry x="443" y="434" width="54" height="56" as="geometry" />
        </mxCell>
        <mxCell id="ZtE4hQ4jBU0YgBMU4XLE-209" value="&lt;span style=&quot;font-size: 12px;&quot;&gt;&lt;b&gt;Office Hardware&lt;/b&gt;&lt;/span&gt;&lt;div style=&quot;font-size: 12px;&quot;&gt;&lt;b&gt;192.168.0.32/28&lt;/b&gt;&lt;/div&gt;" style="text;strokeColor=none;fillColor=none;html=1;align=center;verticalAlign=middle;whiteSpace=wrap;rounded=0;fontSize=16;" vertex="1" parent="1">
          <mxGeometry x="410" y="490" width="117" height="30" as="geometry" />
        </mxCell>
        <mxCell id="ZtE4hQ4jBU0YgBMU4XLE-214" value="" style="shape=mxgraph.cisco.switches.atm_switch;sketch=0;html=1;pointerEvents=1;dashed=0;fillColor=#036897;strokeColor=#ffffff;strokeWidth=2;verticalLabelPosition=bottom;verticalAlign=top;align=center;outlineConnect=0;" vertex="1" parent="1">
          <mxGeometry x="773" y="425.3" width="54" height="56" as="geometry" />
        </mxCell>
        <mxCell id="ZtE4hQ4jBU0YgBMU4XLE-216" value="&lt;span style=&quot;font-size: 12px;&quot;&gt;&lt;b style=&quot;&quot;&gt;Wi-Fi&lt;/b&gt;&lt;/span&gt;&lt;div style=&quot;font-size: 12px;&quot;&gt;&lt;b style=&quot;&quot;&gt;192.168.0.64/26&lt;/b&gt;&lt;/div&gt;" style="text;strokeColor=none;fillColor=none;html=1;align=center;verticalAlign=middle;whiteSpace=wrap;rounded=0;fontSize=16;" vertex="1" parent="1">
          <mxGeometry x="741.5" y="481.3" width="117" height="30" as="geometry" />
        </mxCell>
        <mxCell id="ZtE4hQ4jBU0YgBMU4XLE-220" style="edgeStyle=none;curved=1;rounded=0;orthogonalLoop=1;jettySize=auto;html=1;entryX=0.425;entryY=0.909;entryDx=0;entryDy=0;entryPerimeter=0;fontSize=12;startSize=8;endSize=8;endArrow=none;endFill=0;" edge="1" parent="1">
          <mxGeometry relative="1" as="geometry">
            <mxPoint x="150" y="463" as="sourcePoint" />
            <mxPoint x="151" y="403.02" as="targetPoint" />
          </mxGeometry>
        </mxCell>
        <mxCell id="ZtE4hQ4jBU0YgBMU4XLE-221" style="edgeStyle=none;curved=1;rounded=0;orthogonalLoop=1;jettySize=auto;html=1;exitX=0.88;exitY=0.25;exitDx=0;exitDy=0;exitPerimeter=0;fontSize=12;startSize=8;endSize=8;endArrow=none;endFill=0;" edge="1" parent="1">
          <mxGeometry relative="1" as="geometry">
            <mxPoint x="431" y="277" as="targetPoint" />
            <mxPoint x="205.5999999999999" y="335.29999999999995" as="sourcePoint" />
          </mxGeometry>
        </mxCell>
        <mxCell id="ZtE4hQ4jBU0YgBMU4XLE-222" value="&lt;div&gt;&lt;span style=&quot;font-size: 12px;&quot;&gt;&lt;b&gt;Dirrectors&lt;/b&gt;&lt;/span&gt;&lt;/div&gt;&lt;div&gt;&lt;span style=&quot;font-size: 12px;&quot;&gt;&lt;b&gt;192.168.0.0/28&lt;/b&gt;&lt;/span&gt;&lt;/div&gt;" style="text;strokeColor=none;fillColor=none;html=1;align=center;verticalAlign=middle;whiteSpace=wrap;rounded=0;fontSize=16;" vertex="1" parent="1">
          <mxGeometry x="109.5" y="305" width="117" height="30" as="geometry" />
        </mxCell>
        <mxCell id="ZtE4hQ4jBU0YgBMU4XLE-223" value="" style="shape=mxgraph.cisco.switches.atm_switch;sketch=0;html=1;pointerEvents=1;dashed=0;fillColor=#036897;strokeColor=#ffffff;strokeWidth=2;verticalLabelPosition=bottom;verticalAlign=top;align=center;outlineConnect=0;" vertex="1" parent="1">
          <mxGeometry x="141" y="339" width="54" height="56" as="geometry" />
        </mxCell>
        <mxCell id="ZtE4hQ4jBU0YgBMU4XLE-224" value="&lt;font style=&quot;font-size: 12px;&quot;&gt;192.168.0.1/28&lt;/font&gt;" style="text;strokeColor=none;fillColor=none;html=1;align=center;verticalAlign=middle;whiteSpace=wrap;rounded=0;fontSize=16;rotation=-15;" vertex="1" parent="1">
          <mxGeometry x="255.0003225009691" y="274.9966986279571" width="130" height="30" as="geometry" />
        </mxCell>
        <mxCell id="ZtE4hQ4jBU0YgBMU4XLE-226" value="&lt;div&gt;&lt;b&gt;Office1 Network&lt;/b&gt;&lt;/div&gt;&lt;b&gt;192.168.2.0&lt;/b&gt;" style="text;strokeColor=none;fillColor=none;html=1;align=center;verticalAlign=middle;whiteSpace=wrap;rounded=0;fontSize=16;rotation=0;" vertex="1" parent="1">
          <mxGeometry x="55" y="570" width="130" height="30" as="geometry" />
        </mxCell>
        <mxCell id="ZtE4hQ4jBU0YgBMU4XLE-227" value="&lt;div&gt;&lt;b&gt;Office 2 Network&lt;/b&gt;&lt;/div&gt;&lt;div&gt;&lt;b&gt;192.168.1.0&lt;/b&gt;&lt;/div&gt;" style="text;strokeColor=none;fillColor=none;html=1;align=center;verticalAlign=middle;whiteSpace=wrap;rounded=0;fontSize=16;rotation=0;" vertex="1" parent="1">
          <mxGeometry x="525" y="570" width="130" height="30" as="geometry" />
        </mxCell>
        <mxCell id="ZtE4hQ4jBU0YgBMU4XLE-242" style="edgeStyle=none;curved=1;rounded=0;orthogonalLoop=1;jettySize=auto;html=1;exitX=1;exitY=0;exitDx=0;exitDy=0;exitPerimeter=0;fontSize=12;startSize=8;endSize=8;endArrow=none;endFill=0;" edge="1" parent="1" source="ZtE4hQ4jBU0YgBMU4XLE-228" target="ZtE4hQ4jBU0YgBMU4XLE-184">
          <mxGeometry relative="1" as="geometry" />
        </mxCell>
        <mxCell id="ZtE4hQ4jBU0YgBMU4XLE-228" value="" style="shape=mxgraph.cisco.switches.atm_switch;sketch=0;html=1;pointerEvents=1;dashed=0;fillColor=#036897;strokeColor=#ffffff;strokeWidth=2;verticalLabelPosition=bottom;verticalAlign=top;align=center;outlineConnect=0;" vertex="1" parent="1">
          <mxGeometry x="83" y="667" width="47" height="46" as="geometry" />
        </mxCell>
        <mxCell id="ZtE4hQ4jBU0YgBMU4XLE-229" value="&lt;span style=&quot;font-size: 12px;&quot;&gt;&lt;b&gt;Devs&lt;/b&gt;&lt;/span&gt;&lt;div style=&quot;font-size: 12px;&quot;&gt;&lt;b&gt;192.168.2.0/26&lt;/b&gt;&lt;/div&gt;" style="text;strokeColor=none;fillColor=none;html=1;align=center;verticalAlign=middle;whiteSpace=wrap;rounded=0;fontSize=16;" vertex="1" parent="1">
          <mxGeometry x="50" y="713" width="117" height="30" as="geometry" />
        </mxCell>
        <mxCell id="ZtE4hQ4jBU0YgBMU4XLE-243" style="edgeStyle=none;curved=1;rounded=0;orthogonalLoop=1;jettySize=auto;html=1;exitX=1;exitY=0;exitDx=0;exitDy=0;exitPerimeter=0;fontSize=12;startSize=8;endSize=8;endArrow=none;endFill=0;" edge="1" parent="1" source="ZtE4hQ4jBU0YgBMU4XLE-230" target="ZtE4hQ4jBU0YgBMU4XLE-184">
          <mxGeometry relative="1" as="geometry" />
        </mxCell>
        <mxCell id="ZtE4hQ4jBU0YgBMU4XLE-230" value="" style="shape=mxgraph.cisco.switches.atm_switch;sketch=0;html=1;pointerEvents=1;dashed=0;fillColor=#036897;strokeColor=#ffffff;strokeWidth=2;verticalLabelPosition=bottom;verticalAlign=top;align=center;outlineConnect=0;" vertex="1" parent="1">
          <mxGeometry x="163" y="750" width="47" height="46" as="geometry" />
        </mxCell>
        <mxCell id="ZtE4hQ4jBU0YgBMU4XLE-231" value="&lt;span style=&quot;font-size: 12px;&quot;&gt;&lt;b&gt;Test servers&lt;/b&gt;&lt;/span&gt;&lt;div style=&quot;font-size: 12px;&quot;&gt;&lt;b&gt;192.168.2.64/28&lt;/b&gt;&lt;/div&gt;" style="text;strokeColor=none;fillColor=none;html=1;align=center;verticalAlign=middle;whiteSpace=wrap;rounded=0;fontSize=16;" vertex="1" parent="1">
          <mxGeometry x="130" y="796" width="117" height="30" as="geometry" />
        </mxCell>
        <mxCell id="ZtE4hQ4jBU0YgBMU4XLE-244" style="edgeStyle=none;curved=1;rounded=0;orthogonalLoop=1;jettySize=auto;html=1;exitX=0.5;exitY=0;exitDx=0;exitDy=0;exitPerimeter=0;fontSize=12;startSize=8;endSize=8;endArrow=none;endFill=0;" edge="1" parent="1" source="ZtE4hQ4jBU0YgBMU4XLE-232" target="ZtE4hQ4jBU0YgBMU4XLE-184">
          <mxGeometry relative="1" as="geometry" />
        </mxCell>
        <mxCell id="ZtE4hQ4jBU0YgBMU4XLE-232" value="" style="shape=mxgraph.cisco.switches.atm_switch;sketch=0;html=1;pointerEvents=1;dashed=0;fillColor=#036897;strokeColor=#ffffff;strokeWidth=2;verticalLabelPosition=bottom;verticalAlign=top;align=center;outlineConnect=0;" vertex="1" parent="1">
          <mxGeometry x="313" y="750" width="47" height="46" as="geometry" />
        </mxCell>
        <mxCell id="ZtE4hQ4jBU0YgBMU4XLE-233" value="&lt;span style=&quot;font-size: 12px;&quot;&gt;&lt;b&gt;Managers&lt;/b&gt;&lt;/span&gt;&lt;div style=&quot;font-size: 12px;&quot;&gt;&lt;b&gt;192.168.2.128/26&lt;/b&gt;&lt;/div&gt;" style="text;strokeColor=none;fillColor=none;html=1;align=center;verticalAlign=middle;whiteSpace=wrap;rounded=0;fontSize=16;" vertex="1" parent="1">
          <mxGeometry x="280" y="796" width="117" height="30" as="geometry" />
        </mxCell>
        <mxCell id="ZtE4hQ4jBU0YgBMU4XLE-245" style="edgeStyle=none;curved=1;rounded=0;orthogonalLoop=1;jettySize=auto;html=1;exitX=0.11;exitY=0.08;exitDx=0;exitDy=0;exitPerimeter=0;fontSize=12;startSize=8;endSize=8;endArrow=none;endFill=0;" edge="1" parent="1" source="ZtE4hQ4jBU0YgBMU4XLE-234" target="ZtE4hQ4jBU0YgBMU4XLE-184">
          <mxGeometry relative="1" as="geometry" />
        </mxCell>
        <mxCell id="ZtE4hQ4jBU0YgBMU4XLE-234" value="" style="shape=mxgraph.cisco.switches.atm_switch;sketch=0;html=1;pointerEvents=1;dashed=0;fillColor=#036897;strokeColor=#ffffff;strokeWidth=2;verticalLabelPosition=bottom;verticalAlign=top;align=center;outlineConnect=0;" vertex="1" parent="1">
          <mxGeometry x="406" y="652" width="47" height="46" as="geometry" />
        </mxCell>
        <mxCell id="ZtE4hQ4jBU0YgBMU4XLE-235" value="&lt;span style=&quot;font-size: 12px;&quot;&gt;&lt;b&gt;Office Hardware&lt;/b&gt;&lt;/span&gt;&lt;div style=&quot;font-size: 12px;&quot;&gt;&lt;b&gt;192.168.2.192/26&lt;/b&gt;&lt;/div&gt;" style="text;strokeColor=none;fillColor=none;html=1;align=center;verticalAlign=middle;whiteSpace=wrap;rounded=0;fontSize=16;" vertex="1" parent="1">
          <mxGeometry x="373" y="698" width="117" height="30" as="geometry" />
        </mxCell>
        <mxCell id="ZtE4hQ4jBU0YgBMU4XLE-256" style="edgeStyle=none;curved=1;rounded=0;orthogonalLoop=1;jettySize=auto;html=1;exitX=1;exitY=0;exitDx=0;exitDy=0;exitPerimeter=0;fontSize=12;startSize=8;endSize=8;endArrow=none;endFill=0;" edge="1" parent="1" source="ZtE4hQ4jBU0YgBMU4XLE-236" target="ZtE4hQ4jBU0YgBMU4XLE-183">
          <mxGeometry relative="1" as="geometry" />
        </mxCell>
        <mxCell id="ZtE4hQ4jBU0YgBMU4XLE-236" value="" style="shape=mxgraph.cisco.switches.atm_switch;sketch=0;html=1;pointerEvents=1;dashed=0;fillColor=#036897;strokeColor=#ffffff;strokeWidth=2;verticalLabelPosition=bottom;verticalAlign=top;align=center;outlineConnect=0;" vertex="1" parent="1">
          <mxGeometry x="553" y="672" width="47" height="46" as="geometry" />
        </mxCell>
        <mxCell id="ZtE4hQ4jBU0YgBMU4XLE-237" value="&lt;span style=&quot;font-size: 12px;&quot;&gt;&lt;b&gt;Devs&lt;/b&gt;&lt;/span&gt;&lt;div style=&quot;font-size: 12px;&quot;&gt;&lt;b&gt;192.168.1.0/25&lt;/b&gt;&lt;/div&gt;" style="text;strokeColor=none;fillColor=none;html=1;align=center;verticalAlign=middle;whiteSpace=wrap;rounded=0;fontSize=16;" vertex="1" parent="1">
          <mxGeometry x="520" y="718" width="117" height="30" as="geometry" />
        </mxCell>
        <mxCell id="ZtE4hQ4jBU0YgBMU4XLE-257" style="edgeStyle=none;curved=1;rounded=0;orthogonalLoop=1;jettySize=auto;html=1;exitX=0.5;exitY=0;exitDx=0;exitDy=0;exitPerimeter=0;fontSize=12;startSize=8;endSize=8;endArrow=none;endFill=0;" edge="1" parent="1" source="ZtE4hQ4jBU0YgBMU4XLE-238" target="ZtE4hQ4jBU0YgBMU4XLE-183">
          <mxGeometry relative="1" as="geometry" />
        </mxCell>
        <mxCell id="ZtE4hQ4jBU0YgBMU4XLE-238" value="" style="shape=mxgraph.cisco.switches.atm_switch;sketch=0;html=1;pointerEvents=1;dashed=0;fillColor=#036897;strokeColor=#ffffff;strokeWidth=2;verticalLabelPosition=bottom;verticalAlign=top;align=center;outlineConnect=0;" vertex="1" parent="1">
          <mxGeometry x="679.5" y="770" width="47" height="46" as="geometry" />
        </mxCell>
        <mxCell id="ZtE4hQ4jBU0YgBMU4XLE-239" value="&lt;span style=&quot;font-size: 12px;&quot;&gt;&lt;b&gt;Office Hardware&lt;/b&gt;&lt;/span&gt;&lt;div style=&quot;font-size: 12px;&quot;&gt;&lt;b&gt;192.168.1.128/26&lt;/b&gt;&lt;/div&gt;" style="text;strokeColor=none;fillColor=none;html=1;align=center;verticalAlign=middle;whiteSpace=wrap;rounded=0;fontSize=16;" vertex="1" parent="1">
          <mxGeometry x="646.5" y="816" width="117" height="30" as="geometry" />
        </mxCell>
        <mxCell id="ZtE4hQ4jBU0YgBMU4XLE-258" style="edgeStyle=none;curved=1;rounded=0;orthogonalLoop=1;jettySize=auto;html=1;exitX=0.11;exitY=0.08;exitDx=0;exitDy=0;exitPerimeter=0;fontSize=12;startSize=8;endSize=8;endArrow=none;endFill=0;" edge="1" parent="1" source="ZtE4hQ4jBU0YgBMU4XLE-240" target="ZtE4hQ4jBU0YgBMU4XLE-183">
          <mxGeometry relative="1" as="geometry" />
        </mxCell>
        <mxCell id="ZtE4hQ4jBU0YgBMU4XLE-240" value="" style="shape=mxgraph.cisco.switches.atm_switch;sketch=0;html=1;pointerEvents=1;dashed=0;fillColor=#036897;strokeColor=#ffffff;strokeWidth=2;verticalLabelPosition=bottom;verticalAlign=top;align=center;outlineConnect=0;" vertex="1" parent="1">
          <mxGeometry x="802" y="674" width="47" height="46" as="geometry" />
        </mxCell>
        <mxCell id="ZtE4hQ4jBU0YgBMU4XLE-241" value="&lt;span style=&quot;font-size: 12px;&quot;&gt;&lt;b&gt;Office Hardware&lt;/b&gt;&lt;/span&gt;&lt;div style=&quot;font-size: 12px;&quot;&gt;&lt;b&gt;192.168.1.192/26&lt;/b&gt;&lt;/div&gt;" style="text;strokeColor=none;fillColor=none;html=1;align=center;verticalAlign=middle;whiteSpace=wrap;rounded=0;fontSize=16;" vertex="1" parent="1">
          <mxGeometry x="769" y="720" width="117" height="30" as="geometry" />
        </mxCell>
        <mxCell id="ZtE4hQ4jBU0YgBMU4XLE-248" style="edgeStyle=none;curved=1;rounded=0;orthogonalLoop=1;jettySize=auto;html=1;exitX=0.5;exitY=0;exitDx=0;exitDy=0;exitPerimeter=0;entryX=0.5;entryY=1;entryDx=0;entryDy=0;fontSize=12;startSize=8;endSize=8;endArrow=none;endFill=0;" edge="1" parent="1" source="ZtE4hQ4jBU0YgBMU4XLE-247" target="ZtE4hQ4jBU0YgBMU4XLE-233">
          <mxGeometry relative="1" as="geometry" />
        </mxCell>
        <mxCell id="ZtE4hQ4jBU0YgBMU4XLE-247" value="" style="shape=mxgraph.cisco.servers.fileserver;sketch=0;html=1;pointerEvents=1;dashed=0;fillColor=#036897;strokeColor=#ffffff;strokeWidth=2;verticalLabelPosition=bottom;verticalAlign=top;align=center;outlineConnect=0;" vertex="1" parent="1">
          <mxGeometry x="317" y="870" width="43" height="62" as="geometry" />
        </mxCell>
        <mxCell id="ZtE4hQ4jBU0YgBMU4XLE-250" value="&lt;font style=&quot;font-size: 12px;&quot;&gt;192.168.2.1/26&lt;/font&gt;" style="text;strokeColor=none;fillColor=none;html=1;align=center;verticalAlign=middle;whiteSpace=wrap;rounded=0;fontSize=16;rotation=0;" vertex="1" parent="1">
          <mxGeometry x="130.0003225009691" y="628.4966986279571" width="130" height="30" as="geometry" />
        </mxCell>
        <mxCell id="ZtE4hQ4jBU0YgBMU4XLE-251" value="&lt;font style=&quot;font-size: 12px;&quot;&gt;192.168.2.65/26&lt;/font&gt;" style="text;strokeColor=none;fillColor=none;html=1;align=center;verticalAlign=middle;whiteSpace=wrap;rounded=0;fontSize=16;rotation=0;" vertex="1" parent="1">
          <mxGeometry x="150.0003225009691" y="658.4966986279571" width="130" height="30" as="geometry" />
        </mxCell>
        <mxCell id="ZtE4hQ4jBU0YgBMU4XLE-252" value="&lt;font style=&quot;font-size: 12px;&quot;&gt;192.168.2.129/26&lt;/font&gt;" style="text;strokeColor=none;fillColor=none;html=1;align=center;verticalAlign=middle;whiteSpace=wrap;rounded=0;fontSize=16;rotation=0;" vertex="1" parent="1">
          <mxGeometry x="280.0003225009691" y="658.4966986279571" width="130" height="30" as="geometry" />
        </mxCell>
        <mxCell id="ZtE4hQ4jBU0YgBMU4XLE-253" value="&lt;font style=&quot;font-size: 12px;&quot;&gt;192.168.2.193/26&lt;/font&gt;" style="text;strokeColor=none;fillColor=none;html=1;align=center;verticalAlign=middle;whiteSpace=wrap;rounded=0;fontSize=16;rotation=0;" vertex="1" parent="1">
          <mxGeometry x="300.0003225009691" y="621.4966986279571" width="130" height="30" as="geometry" />
        </mxCell>
        <mxCell id="ZtE4hQ4jBU0YgBMU4XLE-255" value="&lt;span style=&quot;font-size: 12px;&quot;&gt;&lt;b&gt;Office 1 Server&lt;/b&gt;&lt;/span&gt;&lt;br&gt;&lt;div&gt;&lt;span style=&quot;font-size: 12px;&quot;&gt;&lt;b&gt;192.168.2.130/26&lt;/b&gt;&lt;/span&gt;&lt;b&gt;&lt;font style=&quot;font-size: 12px;&quot;&gt;&lt;br&gt;&lt;/font&gt;&lt;/b&gt;&lt;/div&gt;" style="text;strokeColor=none;fillColor=none;html=1;align=center;verticalAlign=middle;whiteSpace=wrap;rounded=0;fontSize=16;" vertex="1" parent="1">
          <mxGeometry x="210" y="870" width="120" height="30" as="geometry" />
        </mxCell>
        <mxCell id="ZtE4hQ4jBU0YgBMU4XLE-261" value="&lt;font style=&quot;font-size: 12px;&quot;&gt;192.168.1.1/25&lt;/font&gt;" style="text;strokeColor=none;fillColor=none;html=1;align=center;verticalAlign=middle;whiteSpace=wrap;rounded=0;fontSize=16;rotation=-15;" vertex="1" parent="1">
          <mxGeometry x="553.0003225009691" y="632.9966986279571" width="130" height="30" as="geometry" />
        </mxCell>
        <mxCell id="ZtE4hQ4jBU0YgBMU4XLE-262" value="&lt;font style=&quot;font-size: 12px;&quot;&gt;192.168.1.129/26&lt;/font&gt;" style="text;strokeColor=none;fillColor=none;html=1;align=center;verticalAlign=middle;whiteSpace=wrap;rounded=0;fontSize=16;rotation=-90;" vertex="1" parent="1">
          <mxGeometry x="630.0003225009691" y="697.9966986279571" width="130" height="30" as="geometry" />
        </mxCell>
        <mxCell id="ZtE4hQ4jBU0YgBMU4XLE-263" value="&lt;font style=&quot;font-size: 12px;&quot;&gt;192.168.1.193/26&lt;/font&gt;" style="text;strokeColor=none;fillColor=none;html=1;align=center;verticalAlign=middle;whiteSpace=wrap;rounded=0;fontSize=16;rotation=15;" vertex="1" parent="1">
          <mxGeometry x="728.5003225009691" y="632.9966986279571" width="130" height="30" as="geometry" />
        </mxCell>
        <mxCell id="ZtE4hQ4jBU0YgBMU4XLE-267" style="edgeStyle=none;curved=1;rounded=0;orthogonalLoop=1;jettySize=auto;html=1;fontSize=12;startSize=8;endSize=8;" edge="1" parent="1" source="ZtE4hQ4jBU0YgBMU4XLE-264" target="ZtE4hQ4jBU0YgBMU4XLE-239">
          <mxGeometry relative="1" as="geometry" />
        </mxCell>
        <mxCell id="ZtE4hQ4jBU0YgBMU4XLE-264" value="" style="shape=mxgraph.cisco.servers.fileserver;sketch=0;html=1;pointerEvents=1;dashed=0;fillColor=#036897;strokeColor=#ffffff;strokeWidth=2;verticalLabelPosition=bottom;verticalAlign=top;align=center;outlineConnect=0;" vertex="1" parent="1">
          <mxGeometry x="683.5" y="880" width="43" height="62" as="geometry" />
        </mxCell>
        <mxCell id="ZtE4hQ4jBU0YgBMU4XLE-265" value="&lt;span style=&quot;font-size: 12px;&quot;&gt;&lt;b&gt;Office 2 Server&lt;/b&gt;&lt;/span&gt;&lt;br&gt;&lt;div&gt;&lt;span style=&quot;font-size: 12px;&quot;&gt;&lt;b&gt;192.168.1.129/26&lt;/b&gt;&lt;/span&gt;&lt;b&gt;&lt;font style=&quot;font-size: 12px;&quot;&gt;&lt;br&gt;&lt;/font&gt;&lt;/b&gt;&lt;/div&gt;" style="text;strokeColor=none;fillColor=none;html=1;align=center;verticalAlign=middle;whiteSpace=wrap;rounded=0;fontSize=16;" vertex="1" parent="1">
          <mxGeometry x="712.5" y="876" width="120" height="30" as="geometry" />
        </mxCell>
        <mxCell id="ZtE4hQ4jBU0YgBMU4XLE-288" value="&lt;font style=&quot;font-size: 12px;&quot;&gt;192.168.255.5/30&lt;/font&gt;" style="text;strokeColor=none;fillColor=none;html=1;align=center;verticalAlign=middle;whiteSpace=wrap;rounded=0;fontSize=16;rotation=45;" vertex="1" parent="1">
          <mxGeometry x="485.0003225009691" y="329.9966986279571" width="130" height="30" as="geometry" />
        </mxCell>
        <mxCell id="ZtE4hQ4jBU0YgBMU4XLE-289" value="&lt;font style=&quot;font-size: 12px;&quot;&gt;192.168.255.9/30&lt;/font&gt;" style="text;strokeColor=none;fillColor=none;html=1;align=center;verticalAlign=middle;whiteSpace=wrap;rounded=0;fontSize=16;rotation=-55;" vertex="1" parent="1">
          <mxGeometry x="340.0003225009691" y="321.9966986279571" width="130" height="30" as="geometry" />
        </mxCell>
        <mxCell id="ZtE4hQ4jBU0YgBMU4XLE-308" value="&lt;div&gt;&lt;b&gt;Border Network&lt;/b&gt;&lt;/div&gt;&lt;b&gt;192.168.255.0&lt;/b&gt;" style="text;strokeColor=none;fillColor=none;html=1;align=center;verticalAlign=middle;whiteSpace=wrap;rounded=0;fontSize=16;rotation=0;" vertex="1" parent="1">
          <mxGeometry x="280" y="100" width="130" height="30" as="geometry" />
        </mxCell>
        <mxCell id="ZtE4hQ4jBU0YgBMU4XLE-315" value="" style="shape=table;startSize=0;container=1;collapsible=0;childLayout=tableLayout;fontStyle=1" vertex="1" parent="1">
          <mxGeometry x="960" y="708" width="220" height="252" as="geometry" />
        </mxCell>
        <mxCell id="ZtE4hQ4jBU0YgBMU4XLE-343" style="shape=tableRow;horizontal=0;startSize=0;swimlaneHead=0;swimlaneBody=0;strokeColor=inherit;top=0;left=0;bottom=0;right=0;collapsible=0;dropTarget=0;fillColor=none;points=[[0,0.5],[1,0.5]];portConstraint=eastwest;fontStyle=1" vertex="1" parent="ZtE4hQ4jBU0YgBMU4XLE-315">
          <mxGeometry width="220" height="22" as="geometry" />
        </mxCell>
        <mxCell id="ZtE4hQ4jBU0YgBMU4XLE-344" value="&lt;span&gt;Server&lt;/span&gt;" style="shape=partialRectangle;html=1;whiteSpace=wrap;connectable=0;strokeColor=inherit;overflow=hidden;fillColor=none;top=0;left=0;bottom=0;right=0;pointerEvents=1;fontStyle=1" vertex="1" parent="ZtE4hQ4jBU0YgBMU4XLE-343">
          <mxGeometry width="73" height="22" as="geometry">
            <mxRectangle width="73" height="22" as="alternateBounds" />
          </mxGeometry>
        </mxCell>
        <mxCell id="ZtE4hQ4jBU0YgBMU4XLE-345" value="&lt;span&gt;&amp;nbsp; &amp;nbsp;Ip and BitMask&lt;/span&gt;" style="shape=partialRectangle;html=1;whiteSpace=wrap;connectable=0;strokeColor=inherit;overflow=hidden;fillColor=none;top=0;left=0;bottom=0;right=0;pointerEvents=1;align=left;fontStyle=1" vertex="1" parent="ZtE4hQ4jBU0YgBMU4XLE-343">
          <mxGeometry x="73" width="147" height="22" as="geometry">
            <mxRectangle width="147" height="22" as="alternateBounds" />
          </mxGeometry>
        </mxCell>
        <mxCell id="ZtE4hQ4jBU0YgBMU4XLE-346" style="shape=tableRow;horizontal=0;startSize=0;swimlaneHead=0;swimlaneBody=0;strokeColor=inherit;top=0;left=0;bottom=0;right=0;collapsible=0;dropTarget=0;fillColor=none;points=[[0,0.5],[1,0.5]];portConstraint=eastwest;fontStyle=1" vertex="1" parent="ZtE4hQ4jBU0YgBMU4XLE-315">
          <mxGeometry y="22" width="220" height="22" as="geometry" />
        </mxCell>
        <mxCell id="ZtE4hQ4jBU0YgBMU4XLE-347" value="&lt;span&gt;Inet Router&lt;/span&gt;" style="shape=partialRectangle;html=1;whiteSpace=wrap;connectable=0;strokeColor=inherit;overflow=hidden;fillColor=none;top=0;left=0;bottom=0;right=0;pointerEvents=1;rowspan=2;colspan=1;fontStyle=1" vertex="1" parent="ZtE4hQ4jBU0YgBMU4XLE-346">
          <mxGeometry width="73" height="44" as="geometry">
            <mxRectangle width="73" height="22" as="alternateBounds" />
          </mxGeometry>
        </mxCell>
        <mxCell id="ZtE4hQ4jBU0YgBMU4XLE-348" style="shape=partialRectangle;html=1;whiteSpace=wrap;connectable=0;strokeColor=inherit;overflow=hidden;fillColor=none;top=0;left=0;bottom=0;right=0;pointerEvents=1;align=left;fontStyle=1" vertex="1" parent="ZtE4hQ4jBU0YgBMU4XLE-346">
          <mxGeometry x="73" width="147" height="22" as="geometry">
            <mxRectangle width="147" height="22" as="alternateBounds" />
          </mxGeometry>
        </mxCell>
        <mxCell id="ZtE4hQ4jBU0YgBMU4XLE-349" style="shape=tableRow;horizontal=0;startSize=0;swimlaneHead=0;swimlaneBody=0;strokeColor=inherit;top=0;left=0;bottom=0;right=0;collapsible=0;dropTarget=0;fillColor=none;points=[[0,0.5],[1,0.5]];portConstraint=eastwest;fontStyle=1" vertex="1" parent="ZtE4hQ4jBU0YgBMU4XLE-315">
          <mxGeometry y="44" width="220" height="22" as="geometry" />
        </mxCell>
        <mxCell id="ZtE4hQ4jBU0YgBMU4XLE-350" style="shape=partialRectangle;html=1;whiteSpace=wrap;connectable=0;strokeColor=inherit;overflow=hidden;fillColor=none;top=0;left=0;bottom=0;right=0;pointerEvents=1;" vertex="1" visible="0" parent="ZtE4hQ4jBU0YgBMU4XLE-349">
          <mxGeometry width="73" height="22" as="geometry">
            <mxRectangle width="73" height="22" as="alternateBounds" />
          </mxGeometry>
        </mxCell>
        <mxCell id="ZtE4hQ4jBU0YgBMU4XLE-351" value="192.168.255.1/30" style="shape=partialRectangle;html=1;whiteSpace=wrap;connectable=0;strokeColor=inherit;overflow=hidden;fillColor=none;top=0;left=0;bottom=0;right=0;pointerEvents=1;align=left;fontStyle=1" vertex="1" parent="ZtE4hQ4jBU0YgBMU4XLE-349">
          <mxGeometry x="73" width="147" height="22" as="geometry">
            <mxRectangle width="147" height="22" as="alternateBounds" />
          </mxGeometry>
        </mxCell>
        <mxCell id="ZtE4hQ4jBU0YgBMU4XLE-352" style="shape=tableRow;horizontal=0;startSize=0;swimlaneHead=0;swimlaneBody=0;strokeColor=inherit;top=0;left=0;bottom=0;right=0;collapsible=0;dropTarget=0;fillColor=none;points=[[0,0.5],[1,0.5]];portConstraint=eastwest;fontStyle=1" vertex="1" parent="ZtE4hQ4jBU0YgBMU4XLE-315">
          <mxGeometry y="66" width="220" height="22" as="geometry" />
        </mxCell>
        <mxCell id="ZtE4hQ4jBU0YgBMU4XLE-353" value="&lt;span&gt;Central Router&lt;/span&gt;" style="shape=partialRectangle;html=1;whiteSpace=wrap;connectable=0;strokeColor=inherit;overflow=hidden;fillColor=none;top=0;left=0;bottom=0;right=0;pointerEvents=1;rowspan=6;colspan=1;fontStyle=1" vertex="1" parent="ZtE4hQ4jBU0YgBMU4XLE-352">
          <mxGeometry width="73" height="132" as="geometry">
            <mxRectangle width="73" height="22" as="alternateBounds" />
          </mxGeometry>
        </mxCell>
        <mxCell id="ZtE4hQ4jBU0YgBMU4XLE-354" value="192.168.255.2/30" style="shape=partialRectangle;html=1;whiteSpace=wrap;connectable=0;strokeColor=inherit;overflow=hidden;fillColor=none;top=0;left=0;bottom=0;right=0;pointerEvents=1;align=left;fontStyle=1" vertex="1" parent="ZtE4hQ4jBU0YgBMU4XLE-352">
          <mxGeometry x="73" width="147" height="22" as="geometry">
            <mxRectangle width="147" height="22" as="alternateBounds" />
          </mxGeometry>
        </mxCell>
        <mxCell id="ZtE4hQ4jBU0YgBMU4XLE-361" style="shape=tableRow;horizontal=0;startSize=0;swimlaneHead=0;swimlaneBody=0;strokeColor=inherit;top=0;left=0;bottom=0;right=0;collapsible=0;dropTarget=0;fillColor=none;points=[[0,0.5],[1,0.5]];portConstraint=eastwest;fontStyle=1" vertex="1" parent="ZtE4hQ4jBU0YgBMU4XLE-315">
          <mxGeometry y="88" width="220" height="22" as="geometry" />
        </mxCell>
        <mxCell id="ZtE4hQ4jBU0YgBMU4XLE-362" style="shape=partialRectangle;html=1;whiteSpace=wrap;connectable=0;strokeColor=inherit;overflow=hidden;fillColor=none;top=0;left=0;bottom=0;right=0;pointerEvents=1;" vertex="1" visible="0" parent="ZtE4hQ4jBU0YgBMU4XLE-361">
          <mxGeometry width="73" height="22" as="geometry">
            <mxRectangle width="73" height="22" as="alternateBounds" />
          </mxGeometry>
        </mxCell>
        <mxCell id="ZtE4hQ4jBU0YgBMU4XLE-363" value="192.168.255.5/30" style="shape=partialRectangle;html=1;whiteSpace=wrap;connectable=0;strokeColor=inherit;overflow=hidden;fillColor=none;top=0;left=0;bottom=0;right=0;pointerEvents=1;align=left;fontStyle=1" vertex="1" parent="ZtE4hQ4jBU0YgBMU4XLE-361">
          <mxGeometry x="73" width="147" height="22" as="geometry">
            <mxRectangle width="147" height="22" as="alternateBounds" />
          </mxGeometry>
        </mxCell>
        <mxCell id="ZtE4hQ4jBU0YgBMU4XLE-364" style="shape=tableRow;horizontal=0;startSize=0;swimlaneHead=0;swimlaneBody=0;strokeColor=inherit;top=0;left=0;bottom=0;right=0;collapsible=0;dropTarget=0;fillColor=none;points=[[0,0.5],[1,0.5]];portConstraint=eastwest;fontStyle=1" vertex="1" parent="ZtE4hQ4jBU0YgBMU4XLE-315">
          <mxGeometry y="110" width="220" height="22" as="geometry" />
        </mxCell>
        <mxCell id="ZtE4hQ4jBU0YgBMU4XLE-365" style="shape=partialRectangle;html=1;whiteSpace=wrap;connectable=0;strokeColor=inherit;overflow=hidden;fillColor=none;top=0;left=0;bottom=0;right=0;pointerEvents=1;" vertex="1" visible="0" parent="ZtE4hQ4jBU0YgBMU4XLE-364">
          <mxGeometry width="73" height="22" as="geometry">
            <mxRectangle width="73" height="22" as="alternateBounds" />
          </mxGeometry>
        </mxCell>
        <mxCell id="ZtE4hQ4jBU0YgBMU4XLE-366" value="192.168.255.9/30" style="shape=partialRectangle;html=1;whiteSpace=wrap;connectable=0;strokeColor=inherit;overflow=hidden;fillColor=none;top=0;left=0;bottom=0;right=0;pointerEvents=1;align=left;fontStyle=1" vertex="1" parent="ZtE4hQ4jBU0YgBMU4XLE-364">
          <mxGeometry x="73" width="147" height="22" as="geometry">
            <mxRectangle width="147" height="22" as="alternateBounds" />
          </mxGeometry>
        </mxCell>
        <mxCell id="ZtE4hQ4jBU0YgBMU4XLE-367" style="shape=tableRow;horizontal=0;startSize=0;swimlaneHead=0;swimlaneBody=0;strokeColor=inherit;top=0;left=0;bottom=0;right=0;collapsible=0;dropTarget=0;fillColor=none;points=[[0,0.5],[1,0.5]];portConstraint=eastwest;fontStyle=1" vertex="1" parent="ZtE4hQ4jBU0YgBMU4XLE-315">
          <mxGeometry y="132" width="220" height="22" as="geometry" />
        </mxCell>
        <mxCell id="ZtE4hQ4jBU0YgBMU4XLE-368" style="shape=partialRectangle;html=1;whiteSpace=wrap;connectable=0;strokeColor=inherit;overflow=hidden;fillColor=none;top=0;left=0;bottom=0;right=0;pointerEvents=1;" vertex="1" visible="0" parent="ZtE4hQ4jBU0YgBMU4XLE-367">
          <mxGeometry width="73" height="22" as="geometry">
            <mxRectangle width="73" height="22" as="alternateBounds" />
          </mxGeometry>
        </mxCell>
        <mxCell id="ZtE4hQ4jBU0YgBMU4XLE-369" value="192.168.0.1/28" style="shape=partialRectangle;html=1;whiteSpace=wrap;connectable=0;strokeColor=inherit;overflow=hidden;fillColor=none;top=0;left=0;bottom=0;right=0;pointerEvents=1;align=left;fontStyle=1" vertex="1" parent="ZtE4hQ4jBU0YgBMU4XLE-367">
          <mxGeometry x="73" width="147" height="22" as="geometry">
            <mxRectangle width="147" height="22" as="alternateBounds" />
          </mxGeometry>
        </mxCell>
        <mxCell id="ZtE4hQ4jBU0YgBMU4XLE-370" style="shape=tableRow;horizontal=0;startSize=0;swimlaneHead=0;swimlaneBody=0;strokeColor=inherit;top=0;left=0;bottom=0;right=0;collapsible=0;dropTarget=0;fillColor=none;points=[[0,0.5],[1,0.5]];portConstraint=eastwest;fontStyle=1" vertex="1" parent="ZtE4hQ4jBU0YgBMU4XLE-315">
          <mxGeometry y="154" width="220" height="22" as="geometry" />
        </mxCell>
        <mxCell id="ZtE4hQ4jBU0YgBMU4XLE-371" style="shape=partialRectangle;html=1;whiteSpace=wrap;connectable=0;strokeColor=inherit;overflow=hidden;fillColor=none;top=0;left=0;bottom=0;right=0;pointerEvents=1;" vertex="1" visible="0" parent="ZtE4hQ4jBU0YgBMU4XLE-370">
          <mxGeometry width="73" height="22" as="geometry">
            <mxRectangle width="73" height="22" as="alternateBounds" />
          </mxGeometry>
        </mxCell>
        <mxCell id="ZtE4hQ4jBU0YgBMU4XLE-372" value="192.168.0.33/28" style="shape=partialRectangle;html=1;whiteSpace=wrap;connectable=0;strokeColor=inherit;overflow=hidden;fillColor=none;top=0;left=0;bottom=0;right=0;pointerEvents=1;align=left;fontStyle=1" vertex="1" parent="ZtE4hQ4jBU0YgBMU4XLE-370">
          <mxGeometry x="73" width="147" height="22" as="geometry">
            <mxRectangle width="147" height="22" as="alternateBounds" />
          </mxGeometry>
        </mxCell>
        <mxCell id="ZtE4hQ4jBU0YgBMU4XLE-373" style="shape=tableRow;horizontal=0;startSize=0;swimlaneHead=0;swimlaneBody=0;strokeColor=inherit;top=0;left=0;bottom=0;right=0;collapsible=0;dropTarget=0;fillColor=none;points=[[0,0.5],[1,0.5]];portConstraint=eastwest;fontStyle=1" vertex="1" parent="ZtE4hQ4jBU0YgBMU4XLE-315">
          <mxGeometry y="176" width="220" height="22" as="geometry" />
        </mxCell>
        <mxCell id="ZtE4hQ4jBU0YgBMU4XLE-374" style="shape=partialRectangle;html=1;whiteSpace=wrap;connectable=0;strokeColor=inherit;overflow=hidden;fillColor=none;top=0;left=0;bottom=0;right=0;pointerEvents=1;" vertex="1" visible="0" parent="ZtE4hQ4jBU0YgBMU4XLE-373">
          <mxGeometry width="73" height="22" as="geometry">
            <mxRectangle width="73" height="22" as="alternateBounds" />
          </mxGeometry>
        </mxCell>
        <mxCell id="ZtE4hQ4jBU0YgBMU4XLE-375" value="192.168.0.65/26" style="shape=partialRectangle;html=1;whiteSpace=wrap;connectable=0;strokeColor=inherit;overflow=hidden;fillColor=none;top=0;left=0;bottom=0;right=0;pointerEvents=1;align=left;fontStyle=1" vertex="1" parent="ZtE4hQ4jBU0YgBMU4XLE-373">
          <mxGeometry x="73" width="147" height="22" as="geometry">
            <mxRectangle width="147" height="22" as="alternateBounds" />
          </mxGeometry>
        </mxCell>
        <mxCell id="ZtE4hQ4jBU0YgBMU4XLE-376" style="shape=tableRow;horizontal=0;startSize=0;swimlaneHead=0;swimlaneBody=0;strokeColor=inherit;top=0;left=0;bottom=0;right=0;collapsible=0;dropTarget=0;fillColor=none;points=[[0,0.5],[1,0.5]];portConstraint=eastwest;fontStyle=1" vertex="1" parent="ZtE4hQ4jBU0YgBMU4XLE-315">
          <mxGeometry y="198" width="220" height="34" as="geometry" />
        </mxCell>
        <mxCell id="ZtE4hQ4jBU0YgBMU4XLE-377" value="Central Server" style="shape=partialRectangle;html=1;whiteSpace=wrap;connectable=0;strokeColor=inherit;overflow=hidden;fillColor=none;top=0;left=0;bottom=0;right=0;pointerEvents=1;rowspan=2;colspan=1;fontStyle=1" vertex="1" parent="ZtE4hQ4jBU0YgBMU4XLE-376">
          <mxGeometry width="73" height="54" as="geometry">
            <mxRectangle width="73" height="34" as="alternateBounds" />
          </mxGeometry>
        </mxCell>
        <mxCell id="ZtE4hQ4jBU0YgBMU4XLE-378" value="192.168.0.2/28" style="shape=partialRectangle;html=1;whiteSpace=wrap;connectable=0;strokeColor=inherit;overflow=hidden;fillColor=none;top=0;left=0;bottom=0;right=0;pointerEvents=1;align=left;rowspan=2;colspan=1;fontStyle=1" vertex="1" parent="ZtE4hQ4jBU0YgBMU4XLE-376">
          <mxGeometry x="73" width="147" height="54" as="geometry">
            <mxRectangle width="147" height="34" as="alternateBounds" />
          </mxGeometry>
        </mxCell>
        <mxCell id="ZtE4hQ4jBU0YgBMU4XLE-379" style="shape=tableRow;horizontal=0;startSize=0;swimlaneHead=0;swimlaneBody=0;strokeColor=inherit;top=0;left=0;bottom=0;right=0;collapsible=0;dropTarget=0;fillColor=none;points=[[0,0.5],[1,0.5]];portConstraint=eastwest;fontStyle=1" vertex="1" parent="ZtE4hQ4jBU0YgBMU4XLE-315">
          <mxGeometry y="232" width="220" height="20" as="geometry" />
        </mxCell>
        <mxCell id="ZtE4hQ4jBU0YgBMU4XLE-380" value="" style="shape=partialRectangle;html=1;whiteSpace=wrap;connectable=0;strokeColor=inherit;overflow=hidden;fillColor=none;top=0;left=0;bottom=0;right=0;pointerEvents=1;" vertex="1" visible="0" parent="ZtE4hQ4jBU0YgBMU4XLE-379">
          <mxGeometry width="73" height="20" as="geometry">
            <mxRectangle width="73" height="20" as="alternateBounds" />
          </mxGeometry>
        </mxCell>
        <mxCell id="ZtE4hQ4jBU0YgBMU4XLE-381" value="" style="shape=partialRectangle;html=1;whiteSpace=wrap;connectable=0;strokeColor=inherit;overflow=hidden;fillColor=none;top=0;left=0;bottom=0;right=0;pointerEvents=1;align=left;" vertex="1" visible="0" parent="ZtE4hQ4jBU0YgBMU4XLE-379">
          <mxGeometry x="73" width="147" height="20" as="geometry">
            <mxRectangle width="147" height="20" as="alternateBounds" />
          </mxGeometry>
        </mxCell>
        <mxCell id="ZtE4hQ4jBU0YgBMU4XLE-384" value="" style="shape=table;startSize=0;container=1;collapsible=0;childLayout=tableLayout;fontStyle=1" vertex="1" parent="1">
          <mxGeometry x="960" y="708" width="220" height="272" as="geometry" />
        </mxCell>
        <mxCell id="ZtE4hQ4jBU0YgBMU4XLE-385" style="shape=tableRow;horizontal=0;startSize=0;swimlaneHead=0;swimlaneBody=0;strokeColor=inherit;top=0;left=0;bottom=0;right=0;collapsible=0;dropTarget=0;fillColor=none;points=[[0,0.5],[1,0.5]];portConstraint=eastwest;fontStyle=1" vertex="1" parent="ZtE4hQ4jBU0YgBMU4XLE-384">
          <mxGeometry width="220" height="22" as="geometry" />
        </mxCell>
        <mxCell id="ZtE4hQ4jBU0YgBMU4XLE-386" value="&lt;span&gt;Server&lt;/span&gt;" style="shape=partialRectangle;html=1;whiteSpace=wrap;connectable=0;strokeColor=inherit;overflow=hidden;fillColor=none;top=0;left=0;bottom=0;right=0;pointerEvents=1;fontStyle=1" vertex="1" parent="ZtE4hQ4jBU0YgBMU4XLE-385">
          <mxGeometry width="73" height="22" as="geometry">
            <mxRectangle width="73" height="22" as="alternateBounds" />
          </mxGeometry>
        </mxCell>
        <mxCell id="ZtE4hQ4jBU0YgBMU4XLE-387" value="&lt;span&gt;&amp;nbsp; &amp;nbsp;Ip and BitMask&lt;/span&gt;" style="shape=partialRectangle;html=1;whiteSpace=wrap;connectable=0;strokeColor=inherit;overflow=hidden;fillColor=none;top=0;left=0;bottom=0;right=0;pointerEvents=1;align=left;fontStyle=1" vertex="1" parent="ZtE4hQ4jBU0YgBMU4XLE-385">
          <mxGeometry x="73" width="147" height="22" as="geometry">
            <mxRectangle width="147" height="22" as="alternateBounds" />
          </mxGeometry>
        </mxCell>
        <mxCell id="ZtE4hQ4jBU0YgBMU4XLE-388" style="shape=tableRow;horizontal=0;startSize=0;swimlaneHead=0;swimlaneBody=0;strokeColor=inherit;top=0;left=0;bottom=0;right=0;collapsible=0;dropTarget=0;fillColor=none;points=[[0,0.5],[1,0.5]];portConstraint=eastwest;fontStyle=1" vertex="1" parent="ZtE4hQ4jBU0YgBMU4XLE-384">
          <mxGeometry y="22" width="220" height="22" as="geometry" />
        </mxCell>
        <mxCell id="ZtE4hQ4jBU0YgBMU4XLE-389" value="&lt;span&gt;Inet Router&lt;/span&gt;" style="shape=partialRectangle;html=1;whiteSpace=wrap;connectable=0;strokeColor=inherit;overflow=hidden;fillColor=none;top=0;left=0;bottom=0;right=0;pointerEvents=1;rowspan=2;colspan=1;fontStyle=1" vertex="1" parent="ZtE4hQ4jBU0YgBMU4XLE-388">
          <mxGeometry width="73" height="44" as="geometry">
            <mxRectangle width="73" height="22" as="alternateBounds" />
          </mxGeometry>
        </mxCell>
        <mxCell id="ZtE4hQ4jBU0YgBMU4XLE-390" value="Default -Nat addr Vbox" style="shape=partialRectangle;html=1;whiteSpace=wrap;connectable=0;strokeColor=inherit;overflow=hidden;fillColor=none;top=0;left=0;bottom=0;right=0;pointerEvents=1;align=left;fontStyle=1" vertex="1" parent="ZtE4hQ4jBU0YgBMU4XLE-388">
          <mxGeometry x="73" width="147" height="22" as="geometry">
            <mxRectangle width="147" height="22" as="alternateBounds" />
          </mxGeometry>
        </mxCell>
        <mxCell id="ZtE4hQ4jBU0YgBMU4XLE-391" style="shape=tableRow;horizontal=0;startSize=0;swimlaneHead=0;swimlaneBody=0;strokeColor=inherit;top=0;left=0;bottom=0;right=0;collapsible=0;dropTarget=0;fillColor=none;points=[[0,0.5],[1,0.5]];portConstraint=eastwest;fontStyle=1" vertex="1" parent="ZtE4hQ4jBU0YgBMU4XLE-384">
          <mxGeometry y="44" width="220" height="22" as="geometry" />
        </mxCell>
        <mxCell id="ZtE4hQ4jBU0YgBMU4XLE-392" style="shape=partialRectangle;html=1;whiteSpace=wrap;connectable=0;strokeColor=inherit;overflow=hidden;fillColor=none;top=0;left=0;bottom=0;right=0;pointerEvents=1;" vertex="1" visible="0" parent="ZtE4hQ4jBU0YgBMU4XLE-391">
          <mxGeometry width="73" height="22" as="geometry">
            <mxRectangle width="73" height="22" as="alternateBounds" />
          </mxGeometry>
        </mxCell>
        <mxCell id="ZtE4hQ4jBU0YgBMU4XLE-393" value="192.168.255.1/30" style="shape=partialRectangle;html=1;whiteSpace=wrap;connectable=0;strokeColor=inherit;overflow=hidden;fillColor=none;top=0;left=0;bottom=0;right=0;pointerEvents=1;align=left;fontStyle=1" vertex="1" parent="ZtE4hQ4jBU0YgBMU4XLE-391">
          <mxGeometry x="73" width="147" height="22" as="geometry">
            <mxRectangle width="147" height="22" as="alternateBounds" />
          </mxGeometry>
        </mxCell>
        <mxCell id="ZtE4hQ4jBU0YgBMU4XLE-394" style="shape=tableRow;horizontal=0;startSize=0;swimlaneHead=0;swimlaneBody=0;strokeColor=inherit;top=0;left=0;bottom=0;right=0;collapsible=0;dropTarget=0;fillColor=none;points=[[0,0.5],[1,0.5]];portConstraint=eastwest;fontStyle=1" vertex="1" parent="ZtE4hQ4jBU0YgBMU4XLE-384">
          <mxGeometry y="66" width="220" height="22" as="geometry" />
        </mxCell>
        <mxCell id="ZtE4hQ4jBU0YgBMU4XLE-395" value="&lt;span&gt;Central Router&lt;/span&gt;" style="shape=partialRectangle;html=1;whiteSpace=wrap;connectable=0;strokeColor=inherit;overflow=hidden;fillColor=none;top=0;left=0;bottom=0;right=0;pointerEvents=1;rowspan=6;colspan=1;fontStyle=1" vertex="1" parent="ZtE4hQ4jBU0YgBMU4XLE-394">
          <mxGeometry width="73" height="132" as="geometry">
            <mxRectangle width="73" height="22" as="alternateBounds" />
          </mxGeometry>
        </mxCell>
        <mxCell id="ZtE4hQ4jBU0YgBMU4XLE-396" value="192.168.255.2/30" style="shape=partialRectangle;html=1;whiteSpace=wrap;connectable=0;strokeColor=inherit;overflow=hidden;fillColor=none;top=0;left=0;bottom=0;right=0;pointerEvents=1;align=left;fontStyle=1" vertex="1" parent="ZtE4hQ4jBU0YgBMU4XLE-394">
          <mxGeometry x="73" width="147" height="22" as="geometry">
            <mxRectangle width="147" height="22" as="alternateBounds" />
          </mxGeometry>
        </mxCell>
        <mxCell id="ZtE4hQ4jBU0YgBMU4XLE-397" style="shape=tableRow;horizontal=0;startSize=0;swimlaneHead=0;swimlaneBody=0;strokeColor=inherit;top=0;left=0;bottom=0;right=0;collapsible=0;dropTarget=0;fillColor=none;points=[[0,0.5],[1,0.5]];portConstraint=eastwest;fontStyle=1" vertex="1" parent="ZtE4hQ4jBU0YgBMU4XLE-384">
          <mxGeometry y="88" width="220" height="22" as="geometry" />
        </mxCell>
        <mxCell id="ZtE4hQ4jBU0YgBMU4XLE-398" style="shape=partialRectangle;html=1;whiteSpace=wrap;connectable=0;strokeColor=inherit;overflow=hidden;fillColor=none;top=0;left=0;bottom=0;right=0;pointerEvents=1;" vertex="1" visible="0" parent="ZtE4hQ4jBU0YgBMU4XLE-397">
          <mxGeometry width="73" height="22" as="geometry">
            <mxRectangle width="73" height="22" as="alternateBounds" />
          </mxGeometry>
        </mxCell>
        <mxCell id="ZtE4hQ4jBU0YgBMU4XLE-399" value="192.168.255.5/30" style="shape=partialRectangle;html=1;whiteSpace=wrap;connectable=0;strokeColor=inherit;overflow=hidden;fillColor=none;top=0;left=0;bottom=0;right=0;pointerEvents=1;align=left;fontStyle=1" vertex="1" parent="ZtE4hQ4jBU0YgBMU4XLE-397">
          <mxGeometry x="73" width="147" height="22" as="geometry">
            <mxRectangle width="147" height="22" as="alternateBounds" />
          </mxGeometry>
        </mxCell>
        <mxCell id="ZtE4hQ4jBU0YgBMU4XLE-400" style="shape=tableRow;horizontal=0;startSize=0;swimlaneHead=0;swimlaneBody=0;strokeColor=inherit;top=0;left=0;bottom=0;right=0;collapsible=0;dropTarget=0;fillColor=none;points=[[0,0.5],[1,0.5]];portConstraint=eastwest;fontStyle=1" vertex="1" parent="ZtE4hQ4jBU0YgBMU4XLE-384">
          <mxGeometry y="110" width="220" height="22" as="geometry" />
        </mxCell>
        <mxCell id="ZtE4hQ4jBU0YgBMU4XLE-401" style="shape=partialRectangle;html=1;whiteSpace=wrap;connectable=0;strokeColor=inherit;overflow=hidden;fillColor=none;top=0;left=0;bottom=0;right=0;pointerEvents=1;" vertex="1" visible="0" parent="ZtE4hQ4jBU0YgBMU4XLE-400">
          <mxGeometry width="73" height="22" as="geometry">
            <mxRectangle width="73" height="22" as="alternateBounds" />
          </mxGeometry>
        </mxCell>
        <mxCell id="ZtE4hQ4jBU0YgBMU4XLE-402" value="192.168.255.9/30" style="shape=partialRectangle;html=1;whiteSpace=wrap;connectable=0;strokeColor=inherit;overflow=hidden;fillColor=none;top=0;left=0;bottom=0;right=0;pointerEvents=1;align=left;fontStyle=1" vertex="1" parent="ZtE4hQ4jBU0YgBMU4XLE-400">
          <mxGeometry x="73" width="147" height="22" as="geometry">
            <mxRectangle width="147" height="22" as="alternateBounds" />
          </mxGeometry>
        </mxCell>
        <mxCell id="ZtE4hQ4jBU0YgBMU4XLE-403" style="shape=tableRow;horizontal=0;startSize=0;swimlaneHead=0;swimlaneBody=0;strokeColor=inherit;top=0;left=0;bottom=0;right=0;collapsible=0;dropTarget=0;fillColor=none;points=[[0,0.5],[1,0.5]];portConstraint=eastwest;fontStyle=1" vertex="1" parent="ZtE4hQ4jBU0YgBMU4XLE-384">
          <mxGeometry y="132" width="220" height="22" as="geometry" />
        </mxCell>
        <mxCell id="ZtE4hQ4jBU0YgBMU4XLE-404" style="shape=partialRectangle;html=1;whiteSpace=wrap;connectable=0;strokeColor=inherit;overflow=hidden;fillColor=none;top=0;left=0;bottom=0;right=0;pointerEvents=1;" vertex="1" visible="0" parent="ZtE4hQ4jBU0YgBMU4XLE-403">
          <mxGeometry width="73" height="22" as="geometry">
            <mxRectangle width="73" height="22" as="alternateBounds" />
          </mxGeometry>
        </mxCell>
        <mxCell id="ZtE4hQ4jBU0YgBMU4XLE-405" value="192.168.0.1/28" style="shape=partialRectangle;html=1;whiteSpace=wrap;connectable=0;strokeColor=inherit;overflow=hidden;fillColor=none;top=0;left=0;bottom=0;right=0;pointerEvents=1;align=left;fontStyle=1" vertex="1" parent="ZtE4hQ4jBU0YgBMU4XLE-403">
          <mxGeometry x="73" width="147" height="22" as="geometry">
            <mxRectangle width="147" height="22" as="alternateBounds" />
          </mxGeometry>
        </mxCell>
        <mxCell id="ZtE4hQ4jBU0YgBMU4XLE-406" style="shape=tableRow;horizontal=0;startSize=0;swimlaneHead=0;swimlaneBody=0;strokeColor=inherit;top=0;left=0;bottom=0;right=0;collapsible=0;dropTarget=0;fillColor=none;points=[[0,0.5],[1,0.5]];portConstraint=eastwest;fontStyle=1" vertex="1" parent="ZtE4hQ4jBU0YgBMU4XLE-384">
          <mxGeometry y="154" width="220" height="22" as="geometry" />
        </mxCell>
        <mxCell id="ZtE4hQ4jBU0YgBMU4XLE-407" style="shape=partialRectangle;html=1;whiteSpace=wrap;connectable=0;strokeColor=inherit;overflow=hidden;fillColor=none;top=0;left=0;bottom=0;right=0;pointerEvents=1;" vertex="1" visible="0" parent="ZtE4hQ4jBU0YgBMU4XLE-406">
          <mxGeometry width="73" height="22" as="geometry">
            <mxRectangle width="73" height="22" as="alternateBounds" />
          </mxGeometry>
        </mxCell>
        <mxCell id="ZtE4hQ4jBU0YgBMU4XLE-408" value="192.168.0.33/28" style="shape=partialRectangle;html=1;whiteSpace=wrap;connectable=0;strokeColor=inherit;overflow=hidden;fillColor=none;top=0;left=0;bottom=0;right=0;pointerEvents=1;align=left;fontStyle=1" vertex="1" parent="ZtE4hQ4jBU0YgBMU4XLE-406">
          <mxGeometry x="73" width="147" height="22" as="geometry">
            <mxRectangle width="147" height="22" as="alternateBounds" />
          </mxGeometry>
        </mxCell>
        <mxCell id="ZtE4hQ4jBU0YgBMU4XLE-409" style="shape=tableRow;horizontal=0;startSize=0;swimlaneHead=0;swimlaneBody=0;strokeColor=inherit;top=0;left=0;bottom=0;right=0;collapsible=0;dropTarget=0;fillColor=none;points=[[0,0.5],[1,0.5]];portConstraint=eastwest;fontStyle=1" vertex="1" parent="ZtE4hQ4jBU0YgBMU4XLE-384">
          <mxGeometry y="176" width="220" height="22" as="geometry" />
        </mxCell>
        <mxCell id="ZtE4hQ4jBU0YgBMU4XLE-410" style="shape=partialRectangle;html=1;whiteSpace=wrap;connectable=0;strokeColor=inherit;overflow=hidden;fillColor=none;top=0;left=0;bottom=0;right=0;pointerEvents=1;" vertex="1" visible="0" parent="ZtE4hQ4jBU0YgBMU4XLE-409">
          <mxGeometry width="73" height="22" as="geometry">
            <mxRectangle width="73" height="22" as="alternateBounds" />
          </mxGeometry>
        </mxCell>
        <mxCell id="ZtE4hQ4jBU0YgBMU4XLE-411" value="192.168.0.65/26" style="shape=partialRectangle;html=1;whiteSpace=wrap;connectable=0;strokeColor=inherit;overflow=hidden;fillColor=none;top=0;left=0;bottom=0;right=0;pointerEvents=1;align=left;fontStyle=1" vertex="1" parent="ZtE4hQ4jBU0YgBMU4XLE-409">
          <mxGeometry x="73" width="147" height="22" as="geometry">
            <mxRectangle width="147" height="22" as="alternateBounds" />
          </mxGeometry>
        </mxCell>
        <mxCell id="ZtE4hQ4jBU0YgBMU4XLE-412" style="shape=tableRow;horizontal=0;startSize=0;swimlaneHead=0;swimlaneBody=0;strokeColor=inherit;top=0;left=0;bottom=0;right=0;collapsible=0;dropTarget=0;fillColor=none;points=[[0,0.5],[1,0.5]];portConstraint=eastwest;fontStyle=1" vertex="1" parent="ZtE4hQ4jBU0YgBMU4XLE-384">
          <mxGeometry y="198" width="220" height="34" as="geometry" />
        </mxCell>
        <mxCell id="ZtE4hQ4jBU0YgBMU4XLE-413" value="Central Server" style="shape=partialRectangle;html=1;whiteSpace=wrap;connectable=0;strokeColor=inherit;overflow=hidden;fillColor=none;top=0;left=0;bottom=0;right=0;pointerEvents=1;rowspan=2;colspan=1;fontStyle=1" vertex="1" parent="ZtE4hQ4jBU0YgBMU4XLE-412">
          <mxGeometry width="73" height="74" as="geometry">
            <mxRectangle width="73" height="34" as="alternateBounds" />
          </mxGeometry>
        </mxCell>
        <mxCell id="ZtE4hQ4jBU0YgBMU4XLE-414" value="192.168.0.2/28" style="shape=partialRectangle;html=1;whiteSpace=wrap;connectable=0;strokeColor=inherit;overflow=hidden;fillColor=none;top=0;left=0;bottom=0;right=0;pointerEvents=1;align=left;rowspan=2;colspan=1;fontStyle=1" vertex="1" parent="ZtE4hQ4jBU0YgBMU4XLE-412">
          <mxGeometry x="73" width="147" height="74" as="geometry">
            <mxRectangle width="147" height="34" as="alternateBounds" />
          </mxGeometry>
        </mxCell>
        <mxCell id="ZtE4hQ4jBU0YgBMU4XLE-415" style="shape=tableRow;horizontal=0;startSize=0;swimlaneHead=0;swimlaneBody=0;strokeColor=inherit;top=0;left=0;bottom=0;right=0;collapsible=0;dropTarget=0;fillColor=none;points=[[0,0.5],[1,0.5]];portConstraint=eastwest;fontStyle=1" vertex="1" parent="ZtE4hQ4jBU0YgBMU4XLE-384">
          <mxGeometry y="232" width="220" height="40" as="geometry" />
        </mxCell>
        <mxCell id="ZtE4hQ4jBU0YgBMU4XLE-416" value="" style="shape=partialRectangle;html=1;whiteSpace=wrap;connectable=0;strokeColor=inherit;overflow=hidden;fillColor=none;top=0;left=0;bottom=0;right=0;pointerEvents=1;" vertex="1" visible="0" parent="ZtE4hQ4jBU0YgBMU4XLE-415">
          <mxGeometry width="73" height="40" as="geometry">
            <mxRectangle width="73" height="40" as="alternateBounds" />
          </mxGeometry>
        </mxCell>
        <mxCell id="ZtE4hQ4jBU0YgBMU4XLE-417" value="" style="shape=partialRectangle;html=1;whiteSpace=wrap;connectable=0;strokeColor=inherit;overflow=hidden;fillColor=none;top=0;left=0;bottom=0;right=0;pointerEvents=1;align=left;" vertex="1" visible="0" parent="ZtE4hQ4jBU0YgBMU4XLE-415">
          <mxGeometry x="73" width="147" height="40" as="geometry">
            <mxRectangle width="147" height="40" as="alternateBounds" />
          </mxGeometry>
        </mxCell>
        <mxCell id="ZtE4hQ4jBU0YgBMU4XLE-422" value="" style="shape=table;startSize=0;container=1;collapsible=0;childLayout=tableLayout;fontStyle=1" vertex="1" parent="1">
          <mxGeometry x="1180" y="708" width="220" height="272" as="geometry" />
        </mxCell>
        <mxCell id="ZtE4hQ4jBU0YgBMU4XLE-423" style="shape=tableRow;horizontal=0;startSize=0;swimlaneHead=0;swimlaneBody=0;strokeColor=inherit;top=0;left=0;bottom=0;right=0;collapsible=0;dropTarget=0;fillColor=none;points=[[0,0.5],[1,0.5]];portConstraint=eastwest;fontStyle=1" vertex="1" parent="ZtE4hQ4jBU0YgBMU4XLE-422">
          <mxGeometry width="220" height="21" as="geometry" />
        </mxCell>
        <mxCell id="ZtE4hQ4jBU0YgBMU4XLE-424" value="&lt;span&gt;Server&lt;/span&gt;" style="shape=partialRectangle;html=1;whiteSpace=wrap;connectable=0;strokeColor=inherit;overflow=hidden;fillColor=none;top=0;left=0;bottom=0;right=0;pointerEvents=1;fontStyle=1" vertex="1" parent="ZtE4hQ4jBU0YgBMU4XLE-423">
          <mxGeometry width="73" height="21" as="geometry">
            <mxRectangle width="73" height="21" as="alternateBounds" />
          </mxGeometry>
        </mxCell>
        <mxCell id="ZtE4hQ4jBU0YgBMU4XLE-425" value="&lt;span&gt;&amp;nbsp; &amp;nbsp;Ip and BitMask&lt;/span&gt;" style="shape=partialRectangle;html=1;whiteSpace=wrap;connectable=0;strokeColor=inherit;overflow=hidden;fillColor=none;top=0;left=0;bottom=0;right=0;pointerEvents=1;align=left;fontStyle=1" vertex="1" parent="ZtE4hQ4jBU0YgBMU4XLE-423">
          <mxGeometry x="73" width="147" height="21" as="geometry">
            <mxRectangle width="147" height="21" as="alternateBounds" />
          </mxGeometry>
        </mxCell>
        <mxCell id="ZtE4hQ4jBU0YgBMU4XLE-426" style="shape=tableRow;horizontal=0;startSize=0;swimlaneHead=0;swimlaneBody=0;strokeColor=inherit;top=0;left=0;bottom=0;right=0;collapsible=0;dropTarget=0;fillColor=none;points=[[0,0.5],[1,0.5]];portConstraint=eastwest;fontStyle=1" vertex="1" parent="ZtE4hQ4jBU0YgBMU4XLE-422">
          <mxGeometry y="21" width="220" height="20" as="geometry" />
        </mxCell>
        <mxCell id="ZtE4hQ4jBU0YgBMU4XLE-427" value="Office 1 Router" style="shape=partialRectangle;html=1;whiteSpace=wrap;connectable=0;strokeColor=inherit;overflow=hidden;fillColor=none;top=0;left=0;bottom=0;right=0;pointerEvents=1;rowspan=5;colspan=1;fontStyle=1" vertex="1" parent="ZtE4hQ4jBU0YgBMU4XLE-426">
          <mxGeometry width="73" height="102" as="geometry">
            <mxRectangle width="73" height="20" as="alternateBounds" />
          </mxGeometry>
        </mxCell>
        <mxCell id="ZtE4hQ4jBU0YgBMU4XLE-428" value="192.168.255.10/30" style="shape=partialRectangle;html=1;whiteSpace=wrap;connectable=0;strokeColor=inherit;overflow=hidden;fillColor=none;top=0;left=0;bottom=0;right=0;pointerEvents=1;align=left;fontStyle=1" vertex="1" parent="ZtE4hQ4jBU0YgBMU4XLE-426">
          <mxGeometry x="73" width="147" height="20" as="geometry">
            <mxRectangle width="147" height="20" as="alternateBounds" />
          </mxGeometry>
        </mxCell>
        <mxCell id="ZtE4hQ4jBU0YgBMU4XLE-429" style="shape=tableRow;horizontal=0;startSize=0;swimlaneHead=0;swimlaneBody=0;strokeColor=inherit;top=0;left=0;bottom=0;right=0;collapsible=0;dropTarget=0;fillColor=none;points=[[0,0.5],[1,0.5]];portConstraint=eastwest;fontStyle=1" vertex="1" parent="ZtE4hQ4jBU0YgBMU4XLE-422">
          <mxGeometry y="41" width="220" height="21" as="geometry" />
        </mxCell>
        <mxCell id="ZtE4hQ4jBU0YgBMU4XLE-430" style="shape=partialRectangle;html=1;whiteSpace=wrap;connectable=0;strokeColor=inherit;overflow=hidden;fillColor=none;top=0;left=0;bottom=0;right=0;pointerEvents=1;" vertex="1" visible="0" parent="ZtE4hQ4jBU0YgBMU4XLE-429">
          <mxGeometry width="73" height="21" as="geometry">
            <mxRectangle width="73" height="21" as="alternateBounds" />
          </mxGeometry>
        </mxCell>
        <mxCell id="ZtE4hQ4jBU0YgBMU4XLE-431" value="192.168.2.1/26" style="shape=partialRectangle;html=1;whiteSpace=wrap;connectable=0;strokeColor=inherit;overflow=hidden;fillColor=none;top=0;left=0;bottom=0;right=0;pointerEvents=1;align=left;fontStyle=1" vertex="1" parent="ZtE4hQ4jBU0YgBMU4XLE-429">
          <mxGeometry x="73" width="147" height="21" as="geometry">
            <mxRectangle width="147" height="21" as="alternateBounds" />
          </mxGeometry>
        </mxCell>
        <mxCell id="ZtE4hQ4jBU0YgBMU4XLE-432" style="shape=tableRow;horizontal=0;startSize=0;swimlaneHead=0;swimlaneBody=0;strokeColor=inherit;top=0;left=0;bottom=0;right=0;collapsible=0;dropTarget=0;fillColor=none;points=[[0,0.5],[1,0.5]];portConstraint=eastwest;fontStyle=1" vertex="1" parent="ZtE4hQ4jBU0YgBMU4XLE-422">
          <mxGeometry y="62" width="220" height="20" as="geometry" />
        </mxCell>
        <mxCell id="ZtE4hQ4jBU0YgBMU4XLE-433" value="" style="shape=partialRectangle;html=1;whiteSpace=wrap;connectable=0;strokeColor=inherit;overflow=hidden;fillColor=none;top=0;left=0;bottom=0;right=0;pointerEvents=1;" vertex="1" visible="0" parent="ZtE4hQ4jBU0YgBMU4XLE-432">
          <mxGeometry width="73" height="20" as="geometry">
            <mxRectangle width="73" height="20" as="alternateBounds" />
          </mxGeometry>
        </mxCell>
        <mxCell id="ZtE4hQ4jBU0YgBMU4XLE-434" value="192.168.2.65/26" style="shape=partialRectangle;html=1;whiteSpace=wrap;connectable=0;strokeColor=inherit;overflow=hidden;fillColor=none;top=0;left=0;bottom=0;right=0;pointerEvents=1;align=left;fontStyle=1" vertex="1" parent="ZtE4hQ4jBU0YgBMU4XLE-432">
          <mxGeometry x="73" width="147" height="20" as="geometry">
            <mxRectangle width="147" height="20" as="alternateBounds" />
          </mxGeometry>
        </mxCell>
        <mxCell id="ZtE4hQ4jBU0YgBMU4XLE-435" style="shape=tableRow;horizontal=0;startSize=0;swimlaneHead=0;swimlaneBody=0;strokeColor=inherit;top=0;left=0;bottom=0;right=0;collapsible=0;dropTarget=0;fillColor=none;points=[[0,0.5],[1,0.5]];portConstraint=eastwest;fontStyle=1" vertex="1" parent="ZtE4hQ4jBU0YgBMU4XLE-422">
          <mxGeometry y="82" width="220" height="21" as="geometry" />
        </mxCell>
        <mxCell id="ZtE4hQ4jBU0YgBMU4XLE-436" style="shape=partialRectangle;html=1;whiteSpace=wrap;connectable=0;strokeColor=inherit;overflow=hidden;fillColor=none;top=0;left=0;bottom=0;right=0;pointerEvents=1;" vertex="1" visible="0" parent="ZtE4hQ4jBU0YgBMU4XLE-435">
          <mxGeometry width="73" height="21" as="geometry">
            <mxRectangle width="73" height="21" as="alternateBounds" />
          </mxGeometry>
        </mxCell>
        <mxCell id="ZtE4hQ4jBU0YgBMU4XLE-437" value="192.168.2.129/26" style="shape=partialRectangle;html=1;whiteSpace=wrap;connectable=0;strokeColor=inherit;overflow=hidden;fillColor=none;top=0;left=0;bottom=0;right=0;pointerEvents=1;align=left;fontStyle=1" vertex="1" parent="ZtE4hQ4jBU0YgBMU4XLE-435">
          <mxGeometry x="73" width="147" height="21" as="geometry">
            <mxRectangle width="147" height="21" as="alternateBounds" />
          </mxGeometry>
        </mxCell>
        <mxCell id="ZtE4hQ4jBU0YgBMU4XLE-438" style="shape=tableRow;horizontal=0;startSize=0;swimlaneHead=0;swimlaneBody=0;strokeColor=inherit;top=0;left=0;bottom=0;right=0;collapsible=0;dropTarget=0;fillColor=none;points=[[0,0.5],[1,0.5]];portConstraint=eastwest;fontStyle=1" vertex="1" parent="ZtE4hQ4jBU0YgBMU4XLE-422">
          <mxGeometry y="103" width="220" height="20" as="geometry" />
        </mxCell>
        <mxCell id="ZtE4hQ4jBU0YgBMU4XLE-439" style="shape=partialRectangle;html=1;whiteSpace=wrap;connectable=0;strokeColor=inherit;overflow=hidden;fillColor=none;top=0;left=0;bottom=0;right=0;pointerEvents=1;" vertex="1" visible="0" parent="ZtE4hQ4jBU0YgBMU4XLE-438">
          <mxGeometry width="73" height="20" as="geometry">
            <mxRectangle width="73" height="20" as="alternateBounds" />
          </mxGeometry>
        </mxCell>
        <mxCell id="ZtE4hQ4jBU0YgBMU4XLE-440" value="192.168.2.193/26" style="shape=partialRectangle;html=1;whiteSpace=wrap;connectable=0;strokeColor=inherit;overflow=hidden;fillColor=none;top=0;left=0;bottom=0;right=0;pointerEvents=1;align=left;fontStyle=1" vertex="1" parent="ZtE4hQ4jBU0YgBMU4XLE-438">
          <mxGeometry x="73" width="147" height="20" as="geometry">
            <mxRectangle width="147" height="20" as="alternateBounds" />
          </mxGeometry>
        </mxCell>
        <mxCell id="ZtE4hQ4jBU0YgBMU4XLE-441" style="shape=tableRow;horizontal=0;startSize=0;swimlaneHead=0;swimlaneBody=0;strokeColor=inherit;top=0;left=0;bottom=0;right=0;collapsible=0;dropTarget=0;fillColor=none;points=[[0,0.5],[1,0.5]];portConstraint=eastwest;fontStyle=1" vertex="1" parent="ZtE4hQ4jBU0YgBMU4XLE-422">
          <mxGeometry y="123" width="220" height="38" as="geometry" />
        </mxCell>
        <mxCell id="ZtE4hQ4jBU0YgBMU4XLE-442" value="Office 1 Server" style="shape=partialRectangle;html=1;whiteSpace=wrap;connectable=0;strokeColor=inherit;overflow=hidden;fillColor=none;top=0;left=0;bottom=0;right=0;pointerEvents=1;fontStyle=1" vertex="1" parent="ZtE4hQ4jBU0YgBMU4XLE-441">
          <mxGeometry width="73" height="38" as="geometry">
            <mxRectangle width="73" height="38" as="alternateBounds" />
          </mxGeometry>
        </mxCell>
        <mxCell id="ZtE4hQ4jBU0YgBMU4XLE-443" value="192.168.2.130/26" style="shape=partialRectangle;html=1;whiteSpace=wrap;connectable=0;strokeColor=inherit;overflow=hidden;fillColor=none;top=0;left=0;bottom=0;right=0;pointerEvents=1;align=left;fontStyle=1" vertex="1" parent="ZtE4hQ4jBU0YgBMU4XLE-441">
          <mxGeometry x="73" width="147" height="38" as="geometry">
            <mxRectangle width="147" height="38" as="alternateBounds" />
          </mxGeometry>
        </mxCell>
        <mxCell id="ZtE4hQ4jBU0YgBMU4XLE-444" style="shape=tableRow;horizontal=0;startSize=0;swimlaneHead=0;swimlaneBody=0;strokeColor=inherit;top=0;left=0;bottom=0;right=0;collapsible=0;dropTarget=0;fillColor=none;points=[[0,0.5],[1,0.5]];portConstraint=eastwest;fontStyle=1" vertex="1" parent="ZtE4hQ4jBU0YgBMU4XLE-422">
          <mxGeometry y="161" width="220" height="20" as="geometry" />
        </mxCell>
        <mxCell id="ZtE4hQ4jBU0YgBMU4XLE-445" value="Office 2 Router" style="shape=partialRectangle;html=1;whiteSpace=wrap;connectable=0;strokeColor=inherit;overflow=hidden;fillColor=none;top=0;left=0;bottom=0;right=0;pointerEvents=1;rowspan=4;colspan=1;fontStyle=1" vertex="1" parent="ZtE4hQ4jBU0YgBMU4XLE-444">
          <mxGeometry width="73" height="80" as="geometry">
            <mxRectangle width="73" height="20" as="alternateBounds" />
          </mxGeometry>
        </mxCell>
        <mxCell id="ZtE4hQ4jBU0YgBMU4XLE-446" value="192.168.255.6/30" style="shape=partialRectangle;html=1;whiteSpace=wrap;connectable=0;strokeColor=inherit;overflow=hidden;fillColor=none;top=0;left=0;bottom=0;right=0;pointerEvents=1;align=left;fontStyle=1" vertex="1" parent="ZtE4hQ4jBU0YgBMU4XLE-444">
          <mxGeometry x="73" width="147" height="20" as="geometry">
            <mxRectangle width="147" height="20" as="alternateBounds" />
          </mxGeometry>
        </mxCell>
        <mxCell id="ZtE4hQ4jBU0YgBMU4XLE-447" style="shape=tableRow;horizontal=0;startSize=0;swimlaneHead=0;swimlaneBody=0;strokeColor=inherit;top=0;left=0;bottom=0;right=0;collapsible=0;dropTarget=0;fillColor=none;points=[[0,0.5],[1,0.5]];portConstraint=eastwest;fontStyle=1" vertex="1" parent="ZtE4hQ4jBU0YgBMU4XLE-422">
          <mxGeometry y="181" width="220" height="21" as="geometry" />
        </mxCell>
        <mxCell id="ZtE4hQ4jBU0YgBMU4XLE-448" style="shape=partialRectangle;html=1;whiteSpace=wrap;connectable=0;strokeColor=inherit;overflow=hidden;fillColor=none;top=0;left=0;bottom=0;right=0;pointerEvents=1;" vertex="1" visible="0" parent="ZtE4hQ4jBU0YgBMU4XLE-447">
          <mxGeometry width="73" height="21" as="geometry">
            <mxRectangle width="73" height="21" as="alternateBounds" />
          </mxGeometry>
        </mxCell>
        <mxCell id="ZtE4hQ4jBU0YgBMU4XLE-449" value="192.168.1.1/25" style="shape=partialRectangle;html=1;whiteSpace=wrap;connectable=0;strokeColor=inherit;overflow=hidden;fillColor=none;top=0;left=0;bottom=0;right=0;pointerEvents=1;align=left;fontStyle=1" vertex="1" parent="ZtE4hQ4jBU0YgBMU4XLE-447">
          <mxGeometry x="73" width="147" height="21" as="geometry">
            <mxRectangle width="147" height="21" as="alternateBounds" />
          </mxGeometry>
        </mxCell>
        <mxCell id="ZtE4hQ4jBU0YgBMU4XLE-450" style="shape=tableRow;horizontal=0;startSize=0;swimlaneHead=0;swimlaneBody=0;strokeColor=inherit;top=0;left=0;bottom=0;right=0;collapsible=0;dropTarget=0;fillColor=none;points=[[0,0.5],[1,0.5]];portConstraint=eastwest;fontStyle=1" vertex="1" parent="ZtE4hQ4jBU0YgBMU4XLE-422">
          <mxGeometry y="202" width="220" height="20" as="geometry" />
        </mxCell>
        <mxCell id="ZtE4hQ4jBU0YgBMU4XLE-451" value="" style="shape=partialRectangle;html=1;whiteSpace=wrap;connectable=0;strokeColor=inherit;overflow=hidden;fillColor=none;top=0;left=0;bottom=0;right=0;pointerEvents=1;" vertex="1" visible="0" parent="ZtE4hQ4jBU0YgBMU4XLE-450">
          <mxGeometry width="73" height="20" as="geometry">
            <mxRectangle width="73" height="20" as="alternateBounds" />
          </mxGeometry>
        </mxCell>
        <mxCell id="ZtE4hQ4jBU0YgBMU4XLE-452" value="192.168.1.129/26" style="shape=partialRectangle;html=1;whiteSpace=wrap;connectable=0;strokeColor=inherit;overflow=hidden;fillColor=none;top=0;left=0;bottom=0;right=0;pointerEvents=1;align=left;fontStyle=1" vertex="1" parent="ZtE4hQ4jBU0YgBMU4XLE-450">
          <mxGeometry x="73" width="147" height="20" as="geometry">
            <mxRectangle width="147" height="20" as="alternateBounds" />
          </mxGeometry>
        </mxCell>
        <mxCell id="ZtE4hQ4jBU0YgBMU4XLE-453" style="shape=tableRow;horizontal=0;startSize=0;swimlaneHead=0;swimlaneBody=0;strokeColor=inherit;top=0;left=0;bottom=0;right=0;collapsible=0;dropTarget=0;fillColor=none;points=[[0,0.5],[1,0.5]];portConstraint=eastwest;fontStyle=1" vertex="1" parent="ZtE4hQ4jBU0YgBMU4XLE-422">
          <mxGeometry y="222" width="220" height="19" as="geometry" />
        </mxCell>
        <mxCell id="ZtE4hQ4jBU0YgBMU4XLE-454" value="" style="shape=partialRectangle;html=1;whiteSpace=wrap;connectable=0;strokeColor=inherit;overflow=hidden;fillColor=none;top=0;left=0;bottom=0;right=0;pointerEvents=1;" vertex="1" visible="0" parent="ZtE4hQ4jBU0YgBMU4XLE-453">
          <mxGeometry width="73" height="19" as="geometry">
            <mxRectangle width="73" height="19" as="alternateBounds" />
          </mxGeometry>
        </mxCell>
        <mxCell id="ZtE4hQ4jBU0YgBMU4XLE-455" value="192.168.1.193/26" style="shape=partialRectangle;html=1;whiteSpace=wrap;connectable=0;strokeColor=inherit;overflow=hidden;fillColor=none;top=0;left=0;bottom=0;right=0;pointerEvents=1;align=left;fontStyle=1" vertex="1" parent="ZtE4hQ4jBU0YgBMU4XLE-453">
          <mxGeometry x="73" width="147" height="19" as="geometry">
            <mxRectangle width="147" height="19" as="alternateBounds" />
          </mxGeometry>
        </mxCell>
        <mxCell id="ZtE4hQ4jBU0YgBMU4XLE-492" style="shape=tableRow;horizontal=0;startSize=0;swimlaneHead=0;swimlaneBody=0;strokeColor=inherit;top=0;left=0;bottom=0;right=0;collapsible=0;dropTarget=0;fillColor=none;points=[[0,0.5],[1,0.5]];portConstraint=eastwest;fontStyle=1" vertex="1" parent="ZtE4hQ4jBU0YgBMU4XLE-422">
          <mxGeometry y="241" width="220" height="31" as="geometry" />
        </mxCell>
        <mxCell id="ZtE4hQ4jBU0YgBMU4XLE-493" value="Office 2 Server" style="shape=partialRectangle;html=1;whiteSpace=wrap;connectable=0;strokeColor=inherit;overflow=hidden;fillColor=none;top=0;left=0;bottom=0;right=0;pointerEvents=1;fontStyle=1" vertex="1" parent="ZtE4hQ4jBU0YgBMU4XLE-492">
          <mxGeometry width="73" height="31" as="geometry">
            <mxRectangle width="73" height="31" as="alternateBounds" />
          </mxGeometry>
        </mxCell>
        <mxCell id="ZtE4hQ4jBU0YgBMU4XLE-494" value="192.168.1.129/26" style="shape=partialRectangle;html=1;whiteSpace=wrap;connectable=0;strokeColor=inherit;overflow=hidden;fillColor=none;top=0;left=0;bottom=0;right=0;pointerEvents=1;align=left;fontStyle=1" vertex="1" parent="ZtE4hQ4jBU0YgBMU4XLE-492">
          <mxGeometry x="73" width="147" height="31" as="geometry">
            <mxRectangle width="147" height="31" as="alternateBounds" />
          </mxGeometry>
        </mxCell>
        <mxCell id="ZtE4hQ4jBU0YgBMU4XLE-490" value="&lt;font style=&quot;font-size: 12px;&quot;&gt;192.168.255.10/30&lt;/font&gt;" style="text;strokeColor=none;fillColor=none;html=1;align=center;verticalAlign=middle;whiteSpace=wrap;rounded=0;fontSize=16;rotation=-60;" vertex="1" parent="1">
          <mxGeometry x="240.0003225009691" y="519.9966986279571" width="130" height="30" as="geometry" />
        </mxCell>
        <mxCell id="ZtE4hQ4jBU0YgBMU4XLE-491" value="&lt;font style=&quot;font-size: 12px;&quot;&gt;192.168.255.6/30&lt;/font&gt;" style="text;strokeColor=none;fillColor=none;html=1;align=center;verticalAlign=middle;whiteSpace=wrap;rounded=0;fontSize=16;rotation=60;" vertex="1" parent="1">
          <mxGeometry x="610.0003225009691" y="509.99669862795713" width="130" height="30" as="geometry" />
        </mxCell>
      </root>
    </mxGraphModel>
  </diagram>
</mxfile>
